<?xml version="1.0" encoding="UTF-8" standalone="no"?>
<!DOCTYPE svg PUBLIC "-//W3C//DTD SVG 1.1//EN"
 "http://www.w3.org/Graphics/SVG/1.1/DTD/svg11.dtd">
<!-- Generated by graphviz version 2.38.0 (20140413.2041)
 -->
<!-- Title: ZDD Pages: 1 -->
<svg width="267pt" height="404pt"
 viewBox="0.00 0.00 266.60 404.00" xmlns="http://www.w3.org/2000/svg" xmlns:xlink="http://www.w3.org/1999/xlink">
<g id="graph0" class="graph" transform="scale(1 1) rotate(0) translate(4 400)">
<title>ZDD</title>
<polygon fill="white" stroke="none" points="-4,4 -4,-400 262.597,-400 262.597,4 -4,4"/>
<!-- CONST NODES -->
<!--  d  -->
<g id="node2" class="node"><title> d </title>
<text text-anchor="middle" x="55" y="-302.3" font-family="Times,serif" font-size="14.00"> d </text>
</g>
<!--  c  -->
<g id="node3" class="node"><title> c </title>
<text text-anchor="middle" x="55" y="-230.3" font-family="Times,serif" font-size="14.00"> c </text>
</g>
<!--  d &#45;&gt; c  -->
<!--  b  -->
<g id="node4" class="node"><title> b </title>
<text text-anchor="middle" x="55" y="-158.3" font-family="Times,serif" font-size="14.00"> b </text>
</g>
<!--  c &#45;&gt; b  -->
<!--  a  -->
<g id="node5" class="node"><title> a </title>
<text text-anchor="middle" x="55" y="-86.3" font-family="Times,serif" font-size="14.00"> a </text>
</g>
<!--  b &#45;&gt; a  -->
<!--  a &#45;&gt;CONST NODES -->
<!--  &#160;ZBDD &#160;&#160;&#160;&#160;&#160; -->
<g id="node6" class="node"><title> &#160;ZBDD &#160;&#160;&#160;&#160;&#160;</title>
<polygon fill="none" stroke="black" points="233.5,-396 150.5,-396 150.5,-360 233.5,-360 233.5,-396"/>
<text text-anchor="middle" x="192" y="-374.3" font-family="Times,serif" font-size="14.00"> &#160;ZBDD &#160;&#160;&#160;&#160;&#160;</text>
</g>
<!-- 0x71 -->
<g id="node7" class="node"><title>0x71</title>
<ellipse fill="none" stroke="black" cx="192" cy="-306" rx="28.6953" ry="18"/>
<text text-anchor="middle" x="192" y="-302.3" font-family="Times,serif" font-size="14.00">0x71</text>
</g>
<!--  &#160;ZBDD &#160;&#160;&#160;&#160;&#160;&#45;&gt;0x71 -->
<g id="edge5" class="edge"><title> &#160;ZBDD &#160;&#160;&#160;&#160;&#160;&#45;&gt;0x71</title>
<path fill="none" stroke="black" d="M192,-359.697C192,-348.846 192,-334.917 192,-324.104"/>
</g>
<!-- 0x70 -->
<g id="node8" class="node"><title>0x70</title>
<ellipse fill="none" stroke="black" cx="155" cy="-234" rx="28.6953" ry="18"/>
<text text-anchor="middle" x="155" y="-230.3" font-family="Times,serif" font-size="14.00">0x70</text>
</g>
<!-- 0x71&#45;&gt;0x70 -->
<g id="edge7" class="edge"><title>0x71&#45;&gt;0x70</title>
<path fill="none" stroke="black" stroke-dasharray="5,2" d="M183.418,-288.765C177.526,-277.618 169.729,-262.865 163.792,-251.633"/>
</g>
<!-- 0x43 -->
<g id="node9" class="node"><title>0x43</title>
<ellipse fill="none" stroke="black" cx="230" cy="-234" rx="28.6953" ry="18"/>
<text text-anchor="middle" x="230" y="-230.3" font-family="Times,serif" font-size="14.00">0x43</text>
</g>
<!-- 0x71&#45;&gt;0x43 -->
<g id="edge6" class="edge"><title>0x71&#45;&gt;0x43</title>
<path fill="none" stroke="black" d="M200.813,-288.765C206.952,-277.456 215.106,-262.437 221.234,-251.147"/>
</g>
<!-- 0x60 -->
<g id="node10" class="node"><title>0x60</title>
<ellipse fill="none" stroke="black" cx="155" cy="-162" rx="28.6953" ry="18"/>
<text text-anchor="middle" x="155" y="-158.3" font-family="Times,serif" font-size="14.00">0x60</text>
</g>
<!-- 0x70&#45;&gt;0x60 -->
<g id="edge9" class="edge"><title>0x70&#45;&gt;0x60</title>
<path fill="none" stroke="black" stroke-dasharray="5,2" d="M155,-215.697C155,-204.846 155,-190.917 155,-180.104"/>
</g>
<!-- 0x42 -->
<g id="node11" class="node"><title>0x42</title>
<ellipse fill="none" stroke="black" cx="230" cy="-162" rx="28.6953" ry="18"/>
<text text-anchor="middle" x="230" y="-158.3" font-family="Times,serif" font-size="14.00">0x42</text>
</g>
<!-- 0x70&#45;&gt;0x42 -->
<g id="edge8" class="edge"><title>0x70&#45;&gt;0x42</title>
<path fill="none" stroke="black" d="M170.54,-218.496C183.498,-206.402 201.856,-189.267 214.736,-177.246"/>
</g>
<!-- 0x43&#45;&gt;0x42 -->
<g id="edge10" class="edge"><title>0x43&#45;&gt;0x42</title>
<path fill="none" stroke="black" d="M224.122,-216.055C222.954,-205.049 222.959,-190.764 224.138,-179.789"/>
</g>
<!-- 0x43&#45;&gt;0x42 -->
<g id="edge11" class="edge"><title>0x43&#45;&gt;0x42</title>
<path fill="none" stroke="black" stroke-dasharray="5,2" d="M235.878,-216.055C237.046,-205.049 237.041,-190.764 235.862,-179.789"/>
</g>
<!-- 0x41 -->
<g id="node12" class="node"><title>0x41</title>
<ellipse fill="none" stroke="black" cx="230" cy="-90" rx="28.6953" ry="18"/>
<text text-anchor="middle" x="230" y="-86.3" font-family="Times,serif" font-size="14.00">0x41</text>
</g>
<!-- 0x60&#45;&gt;0x41 -->
<g id="edge12" class="edge"><title>0x60&#45;&gt;0x41</title>
<path fill="none" stroke="black" d="M170.54,-146.496C183.498,-134.402 201.856,-117.267 214.736,-105.246"/>
</g>
<!-- 0x48 -->
<g id="node13" class="node"><title>0x48</title>
<ellipse fill="none" stroke="black" cx="155" cy="-90" rx="28.6953" ry="18"/>
<text text-anchor="middle" x="155" y="-86.3" font-family="Times,serif" font-size="14.00">0x48</text>
</g>
<!-- 0x60&#45;&gt;0x48 -->
<g id="edge13" class="edge"><title>0x60&#45;&gt;0x48</title>
<path fill="none" stroke="black" stroke-dasharray="5,2" d="M155,-143.697C155,-132.846 155,-118.917 155,-108.104"/>
</g>
<!-- 0x42&#45;&gt;0x41 -->
<g id="edge14" class="edge"><title>0x42&#45;&gt;0x41</title>
<path fill="none" stroke="black" d="M224.122,-144.055C222.954,-133.049 222.959,-118.764 224.138,-107.789"/>
</g>
<!-- 0x42&#45;&gt;0x41 -->
<g id="edge15" class="edge"><title>0x42&#45;&gt;0x41</title>
<path fill="none" stroke="black" stroke-dasharray="5,2" d="M235.878,-144.055C237.046,-133.049 237.041,-118.764 235.862,-107.789"/>
</g>
<!-- 0x22 -->
<g id="node15" class="node"><title>0x22</title>
<polygon fill="none" stroke="black" points="257,-36 203,-36 203,-0 257,-0 257,-36"/>
<text text-anchor="middle" x="230" y="-14.3" font-family="Times,serif" font-size="14.00">1</text>
</g>
<!-- 0x41&#45;&gt;0x22 -->
<g id="edge16" class="edge"><title>0x41&#45;&gt;0x22</title>
<path fill="none" stroke="black" d="M224.122,-72.055C222.971,-61.2111 222.96,-47.183 224.087,-36.2753"/>
</g>
<!-- 0x41&#45;&gt;0x22 -->
<g id="edge17" class="edge"><title>0x41&#45;&gt;0x22</title>
<path fill="none" stroke="black" stroke-dasharray="5,2" d="M235.878,-72.055C237.029,-61.2111 237.04,-47.183 235.913,-36.2753"/>
</g>
<!-- 0x23 -->
<g id="node14" class="node"><title>0x23</title>
<polygon fill="none" stroke="black" points="182,-36 128,-36 128,-0 182,-0 182,-36"/>
<text text-anchor="middle" x="155" y="-14.3" font-family="Times,serif" font-size="14.00">0</text>
</g>
<!-- 0x48&#45;&gt;0x23 -->
<g id="edge19" class="edge"><title>0x48&#45;&gt;0x23</title>
<path fill="none" stroke="black" stroke-dasharray="5,2" d="M155,-71.6966C155,-60.8463 155,-46.9167 155,-36.1043"/>
</g>
<!-- 0x48&#45;&gt;0x22 -->
<g id="edge18" class="edge"><title>0x48&#45;&gt;0x22</title>
<path fill="none" stroke="black" d="M170.54,-74.496C182.468,-63.3632 198.973,-47.9589 211.567,-36.2038"/>
</g>
</g>
</svg>
