<?xml version="1.0" encoding="UTF-8" standalone="no"?>
<!DOCTYPE svg PUBLIC "-//W3C//DTD SVG 1.1//EN"
 "http://www.w3.org/Graphics/SVG/1.1/DTD/svg11.dtd">
<!-- Generated by graphviz version 2.38.0 (20140413.2041)
 -->
<!-- Title: ZDD Pages: 1 -->
<svg width="267pt" height="332pt"
 viewBox="0.00 0.00 266.60 332.00" xmlns="http://www.w3.org/2000/svg" xmlns:xlink="http://www.w3.org/1999/xlink">
<g id="graph0" class="graph" transform="scale(1 1) rotate(0) translate(4 328)">
<title>ZDD</title>
<polygon fill="white" stroke="none" points="-4,4 -4,-328 262.597,-328 262.597,4 -4,4"/>
<!-- CONST NODES -->
<!--  e  -->
<g id="node2" class="node"><title> e </title>
<text text-anchor="middle" x="55" y="-230.3" font-family="Times,serif" font-size="14.00"> e </text>
</g>
<!--  d  -->
<g id="node3" class="node"><title> d </title>
<text text-anchor="middle" x="55" y="-158.3" font-family="Times,serif" font-size="14.00"> d </text>
</g>
<!--  e &#45;&gt; d  -->
<!--  c  -->
<g id="node4" class="node"><title> c </title>
<text text-anchor="middle" x="55" y="-86.3" font-family="Times,serif" font-size="14.00"> c </text>
</g>
<!--  d &#45;&gt; c  -->
<!--  c &#45;&gt;CONST NODES -->
<!--  &#160;ZBDD &#160;&#160;&#160;&#160;&#160; -->
<g id="node5" class="node"><title> &#160;ZBDD &#160;&#160;&#160;&#160;&#160;</title>
<polygon fill="none" stroke="black" points="233.5,-324 150.5,-324 150.5,-288 233.5,-288 233.5,-324"/>
<text text-anchor="middle" x="192" y="-302.3" font-family="Times,serif" font-size="14.00"> &#160;ZBDD &#160;&#160;&#160;&#160;&#160;</text>
</g>
<!-- 0x6b -->
<g id="node6" class="node"><title>0x6b</title>
<ellipse fill="none" stroke="black" cx="192" cy="-234" rx="28.6953" ry="18"/>
<text text-anchor="middle" x="192" y="-230.3" font-family="Times,serif" font-size="14.00">0x6b</text>
</g>
<!--  &#160;ZBDD &#160;&#160;&#160;&#160;&#160;&#45;&gt;0x6b -->
<g id="edge4" class="edge"><title> &#160;ZBDD &#160;&#160;&#160;&#160;&#160;&#45;&gt;0x6b</title>
<path fill="none" stroke="black" d="M192,-287.697C192,-276.846 192,-262.917 192,-252.104"/>
</g>
<!-- 0x6a -->
<g id="node7" class="node"><title>0x6a</title>
<ellipse fill="none" stroke="black" cx="230" cy="-162" rx="27.8951" ry="18"/>
<text text-anchor="middle" x="230" y="-158.3" font-family="Times,serif" font-size="14.00">0x6a</text>
</g>
<!-- 0x6b&#45;&gt;0x6a -->
<g id="edge6" class="edge"><title>0x6b&#45;&gt;0x6a</title>
<path fill="none" stroke="black" stroke-dasharray="5,2" d="M200.813,-216.765C206.952,-205.456 215.106,-190.437 221.234,-179.147"/>
</g>
<!-- 0x35 -->
<g id="node8" class="node"><title>0x35</title>
<ellipse fill="none" stroke="black" cx="155" cy="-162" rx="28.6953" ry="18"/>
<text text-anchor="middle" x="155" y="-158.3" font-family="Times,serif" font-size="14.00">0x35</text>
</g>
<!-- 0x6b&#45;&gt;0x35 -->
<g id="edge5" class="edge"><title>0x6b&#45;&gt;0x35</title>
<path fill="none" stroke="black" d="M183.418,-216.765C177.526,-205.618 169.729,-190.865 163.792,-179.633"/>
</g>
<!-- 0x34 -->
<g id="node9" class="node"><title>0x34</title>
<ellipse fill="none" stroke="black" cx="155" cy="-90" rx="28.6953" ry="18"/>
<text text-anchor="middle" x="155" y="-86.3" font-family="Times,serif" font-size="14.00">0x34</text>
</g>
<!-- 0x6a&#45;&gt;0x34 -->
<g id="edge7" class="edge"><title>0x6a&#45;&gt;0x34</title>
<path fill="none" stroke="black" d="M214.823,-146.834C201.896,-134.77 183.406,-117.512 170.412,-105.385"/>
</g>
<!-- 0x39 -->
<g id="node10" class="node"><title>0x39</title>
<ellipse fill="none" stroke="black" cx="230" cy="-90" rx="28.6953" ry="18"/>
<text text-anchor="middle" x="230" y="-86.3" font-family="Times,serif" font-size="14.00">0x39</text>
</g>
<!-- 0x6a&#45;&gt;0x39 -->
<g id="edge8" class="edge"><title>0x6a&#45;&gt;0x39</title>
<path fill="none" stroke="black" stroke-dasharray="5,2" d="M230,-143.697C230,-132.846 230,-118.917 230,-108.104"/>
</g>
<!-- 0x35&#45;&gt;0x34 -->
<g id="edge9" class="edge"><title>0x35&#45;&gt;0x34</title>
<path fill="none" stroke="black" d="M149.122,-144.055C147.954,-133.049 147.959,-118.764 149.138,-107.789"/>
</g>
<!-- 0x35&#45;&gt;0x34 -->
<g id="edge10" class="edge"><title>0x35&#45;&gt;0x34</title>
<path fill="none" stroke="black" stroke-dasharray="5,2" d="M160.878,-144.055C162.046,-133.049 162.041,-118.764 160.862,-107.789"/>
</g>
<!-- 0x22 -->
<g id="node12" class="node"><title>0x22</title>
<polygon fill="none" stroke="black" points="182,-36 128,-36 128,-0 182,-0 182,-36"/>
<text text-anchor="middle" x="155" y="-14.3" font-family="Times,serif" font-size="14.00">1</text>
</g>
<!-- 0x34&#45;&gt;0x22 -->
<g id="edge11" class="edge"><title>0x34&#45;&gt;0x22</title>
<path fill="none" stroke="black" d="M149.122,-72.055C147.971,-61.2111 147.96,-47.183 149.087,-36.2753"/>
</g>
<!-- 0x34&#45;&gt;0x22 -->
<g id="edge12" class="edge"><title>0x34&#45;&gt;0x22</title>
<path fill="none" stroke="black" stroke-dasharray="5,2" d="M160.878,-72.055C162.029,-61.2111 162.04,-47.183 160.913,-36.2753"/>
</g>
<!-- 0x23 -->
<g id="node11" class="node"><title>0x23</title>
<polygon fill="none" stroke="black" points="257,-36 203,-36 203,-0 257,-0 257,-36"/>
<text text-anchor="middle" x="230" y="-14.3" font-family="Times,serif" font-size="14.00">0</text>
</g>
<!-- 0x39&#45;&gt;0x23 -->
<g id="edge14" class="edge"><title>0x39&#45;&gt;0x23</title>
<path fill="none" stroke="black" stroke-dasharray="5,2" d="M230,-71.6966C230,-60.8463 230,-46.9167 230,-36.1043"/>
</g>
<!-- 0x39&#45;&gt;0x22 -->
<g id="edge13" class="edge"><title>0x39&#45;&gt;0x22</title>
<path fill="none" stroke="black" d="M214.46,-74.496C202.532,-63.3632 186.027,-47.9589 173.433,-36.2038"/>
</g>
</g>
</svg>
