<?xml version="1.0" encoding="UTF-8" standalone="no"?>
<!-- Created with Inkscape (http://www.inkscape.org/) -->

<svg
   xmlns:dc="http://purl.org/dc/elements/1.1/"
   xmlns:cc="http://creativecommons.org/ns#"
   xmlns:rdf="http://www.w3.org/1999/02/22-rdf-syntax-ns#"
   xmlns:svg="http://www.w3.org/2000/svg"
   xmlns="http://www.w3.org/2000/svg"
   xmlns:sodipodi="http://sodipodi.sourceforge.net/DTD/sodipodi-0.dtd"
   xmlns:inkscape="http://www.inkscape.org/namespaces/inkscape"
   id="svg3004"
   version="1.1"
   inkscape:version="0.48.5 r10040"
   width="463.5375"
   height="608.5375"
   xml:space="preserve"
   sodipodi:docname="2-bit-mult.pdf"><metadata
     id="metadata3010"><rdf:RDF><cc:Work
         rdf:about=""><dc:format>image/svg+xml</dc:format><dc:type
           rdf:resource="http://purl.org/dc/dcmitype/StillImage" /><dc:title></dc:title></cc:Work></rdf:RDF></metadata><defs
     id="defs3008"><clipPath
       clipPathUnits="userSpaceOnUse"
       id="clipPath3020"><path
         d="m 0,0 3522.93,0 0,4624.93 L 0,4624.93 0,0 z"
         id="path3022" /></clipPath><clipPath
       clipPathUnits="userSpaceOnUse"
       id="clipPath3106"><path
         d="m 202.059,14.6836 504.906,0 0,664.828 -504.906,0 0,-664.828 z"
         id="path3108" /></clipPath><clipPath
       clipPathUnits="userSpaceOnUse"
       id="clipPath3124"><path
         d="m 1090.72,45.3672 504.906,0 0,634.145 -504.906,0 0,-634.145 z"
         id="path3126" /></clipPath><clipPath
       clipPathUnits="userSpaceOnUse"
       id="clipPath3142"><path
         d="m 2167.89,60.1406 504.906,0 0,592.441 -504.906,0 0,-592.441 z"
         id="path3144" /></clipPath><clipPath
       clipPathUnits="userSpaceOnUse"
       id="clipPath3160"><path
         d="m 2834.37,33.2109 504.906,0 0,646.301 -504.906,0 0,-646.301 z"
         id="path3162" /></clipPath><clipPath
       clipPathUnits="userSpaceOnUse"
       id="clipPath3178"><path
         d="m 342.902,2745.54 310.633,0 0,384.527 -310.633,0 0,-384.527 z"
         id="path3180" /></clipPath><clipPath
       clipPathUnits="userSpaceOnUse"
       id="clipPath3196"><path
         d="m 1280.45,2745.54 310.633,0 0,384.527 -310.633,0 0,-384.527 z"
         id="path3198" /></clipPath><clipPath
       clipPathUnits="userSpaceOnUse"
       id="clipPath3214"><path
         d="m 2203.9,2745.54 310.633,0 0,384.527 -310.633,0 0,-384.527 z"
         id="path3216" /></clipPath><clipPath
       clipPathUnits="userSpaceOnUse"
       id="clipPath3232"><path
         d="m 3176.25,2745.54 331.34,0 0,384.527 -331.34,0 0,-384.527 z"
         id="path3234" /></clipPath><clipPath
       clipPathUnits="userSpaceOnUse"
       id="clipPath3250"><path
         d="m 0,0 3522.93,0 0,4624.93 L 0,4624.93 0,0 z"
         id="path3252" /></clipPath><clipPath
       clipPathUnits="userSpaceOnUse"
       id="clipPath3274"><path
         d="m 1477.98,1352.74 372.836,0 0,419.258 -372.836,0 0,-419.258 z"
         id="path3276" /></clipPath><clipPath
       clipPathUnits="userSpaceOnUse"
       id="clipPath3292"><path
         d="m 60.6641,4016.33 391.238,0 0,594.832 -391.238,0 0,-594.832 z"
         id="path3294" /></clipPath><clipPath
       clipPathUnits="userSpaceOnUse"
       id="clipPath3310"><path
         d="m 1787.46,4039.21 454.469,0 0,571.953 -454.469,0 0,-571.953 z"
         id="path3312" /></clipPath><clipPath
       clipPathUnits="userSpaceOnUse"
       id="clipPath3328"><path
         d="m 0,0 3522.93,0 0,4624.93 L 0,4624.93 0,0 z"
         id="path3330" /></clipPath><clipPath
       clipPathUnits="userSpaceOnUse"
       id="clipPath3354"><path
         d="m 1030.11,4018.72 421.004,0 0,500.254 -421.004,0 0,-500.254 z"
         id="path3356" /></clipPath><clipPath
       clipPathUnits="userSpaceOnUse"
       id="clipPath3372"><path
         d="m 2925.02,4018.72 421.004,0 0,518.469 -421.004,0 0,-518.469 z"
         id="path3374" /></clipPath><clipPath
       clipPathUnits="userSpaceOnUse"
       id="clipPath3390"><path
         d="m 0,0 3522.93,0 0,4624.93 L 0,4624.93 0,0 z"
         id="path3392" /></clipPath></defs><sodipodi:namedview
     pagecolor="#ffffff"
     bordercolor="#666666"
     borderopacity="1"
     objecttolerance="10"
     gridtolerance="10"
     guidetolerance="10"
     inkscape:pageopacity="0"
     inkscape:pageshadow="2"
     inkscape:window-width="926"
     inkscape:window-height="622"
     id="namedview3006"
     showgrid="false"
     inkscape:zoom="0.54845332"
     inkscape:cx="231.76875"
     inkscape:cy="304.26874"
     inkscape:window-x="0"
     inkscape:window-y="0"
     inkscape:window-maximized="0"
     inkscape:current-layer="g3012" /><g
     id="g3012"
     inkscape:groupmode="layer"
     inkscape:label="ink_ext_XXXXXX"
     transform="matrix(1.25,0,0,-1.25,0,608.5375)"><g
       id="g3014"
       transform="scale(0.1,0.1)"><g
         id="g3016"><g
           id="g3018"
           clip-path="url(#clipPath3020)"><path
             d="m 0,0 8259.46,0 0,5257.46 L 0,5257.46 0,0 z"
             style="fill:#ffffff;fill-opacity:1;fill-rule:nonzero;stroke:none"
             id="path3024" /><path
             d="m 419.453,867.297 0,-221.274"
             style="fill:none;stroke:#000000;stroke-opacity:1;stroke-width:28.5;stroke-linecap:round;stroke-linejoin:round;stroke-miterlimit:10;stroke-dasharray:none"
             id="path3026" /><path
             d="m 419.453,539.625 0,106.398 m 39.899,0 -39.899,-106.398 -39.902,106.398"
             style="fill:none;stroke:#000000;stroke-opacity:1;stroke-width:28.5;stroke-linecap:butt;stroke-linejoin:miter;stroke-miterlimit:10;stroke-dasharray:none"
             id="path3028" /><path
             d="m 1273.56,982.281 0,-330.582"
             style="fill:none;stroke:#000000;stroke-opacity:1;stroke-width:28.5;stroke-linecap:butt;stroke-linejoin:miter;stroke-miterlimit:10;stroke-dasharray:none"
             id="path3030" /><path
             d="m 1273.56,545.297 0,106.402 m 39.9,0 -39.9,-106.402 -39.9,106.402"
             style="fill:none;stroke:#000000;stroke-opacity:1;stroke-width:28.5;stroke-linecap:butt;stroke-linejoin:miter;stroke-miterlimit:10;stroke-dasharray:none"
             id="path3032" /><path
             d="m 63.2383,3525.34 0,-262.73 c 0,-131.36 63.1637,-262.72 252.6527,-262.72 189.488,0 252.652,131.36 252.652,262.72 l 0,262.73 -505.3047,0 z"
             style="fill:#ffffff;fill-opacity:1;fill-rule:nonzero;stroke:none"
             id="path3034" /><path
             d="m 63.2422,3525.34 0,-262.73 c 0,-131.36 63.1598,-262.72 252.6488,-262.72 189.488,0 252.652,131.36 252.652,262.72 l 0,262.73 -505.3008,0 z"
             style="fill:none;stroke:#000000;stroke-opacity:1;stroke-width:28.5;stroke-linecap:round;stroke-linejoin:round;stroke-miterlimit:10;stroke-dasharray:none"
             id="path3036" /><path
             d="m 970.195,3525.34 0,-262.73 c 0,-131.36 63.165,-262.72 252.655,-262.72 189.49,0 252.65,131.36 252.65,262.72 l 0,262.73 -505.305,0 z"
             style="fill:#ffffff;fill-opacity:1;fill-rule:nonzero;stroke:none"
             id="path3038" /><path
             d="m 970.195,3525.34 0,-262.73 c 0,-131.36 63.165,-262.72 252.655,-262.72 189.49,0 252.65,131.36 252.65,262.72 l 0,262.73 -505.305,0 z"
             style="fill:none;stroke:#000000;stroke-opacity:1;stroke-width:28.5;stroke-linecap:round;stroke-linejoin:round;stroke-miterlimit:10;stroke-dasharray:none"
             id="path3040" /><path
             d="m 1864.19,3525.34 0,-262.73 c 0,-131.36 63.17,-262.72 252.65,-262.72 189.49,0 252.66,131.36 252.66,262.72 l 0,262.73 -505.31,0 z"
             style="fill:#ffffff;fill-opacity:1;fill-rule:nonzero;stroke:none"
             id="path3042" /><path
             d="m 1864.19,3525.34 0,-262.73 c 0,-131.36 63.17,-262.72 252.65,-262.72 189.49,0 252.66,131.36 252.66,262.72 l 0,262.73 -505.31,0 z"
             style="fill:none;stroke:#000000;stroke-opacity:1;stroke-width:28.5;stroke-linecap:round;stroke-linejoin:round;stroke-miterlimit:10;stroke-dasharray:none"
             id="path3044" /><path
             d="m 1216.37,2999.89 0,-744.02"
             style="fill:none;stroke:#000000;stroke-opacity:1;stroke-width:28.5;stroke-linecap:round;stroke-linejoin:round;stroke-miterlimit:10;stroke-dasharray:none"
             id="path3046" /><path
             d="m 2123.32,2999.89 0,-431.52"
             style="fill:none;stroke:#000000;stroke-opacity:1;stroke-width:28.5;stroke-linecap:round;stroke-linejoin:round;stroke-miterlimit:10;stroke-dasharray:none"
             id="path3048" /><path
             d="m 2162.16,2261.98 0,-93.04 c 23.75,-232.63 95.01,-255.89 237.53,-372.2 142.52,116.31 213.78,139.57 237.54,372.2 l 0,93.04 c -95.02,-23.26 -106.89,-34.89 -237.54,-46.52 -130.64,11.63 -142.52,23.26 -237.53,46.52"
             style="fill:#ffffff;fill-opacity:1;fill-rule:nonzero;stroke:none"
             id="path3050" /><path
             d="m 2162.16,2261.99 0,-93.05 c 23.75,-232.63 95.01,-255.89 237.53,-372.2 142.52,116.31 213.78,139.57 237.54,372.2 l 0,93.05 c -95.02,-23.27 -106.89,-34.9 -237.54,-46.53 -130.64,11.63 -142.52,23.26 -237.53,46.53"
             style="fill:none;stroke:#000000;stroke-opacity:1;stroke-width:28.5;stroke-linecap:round;stroke-linejoin:round;stroke-miterlimit:10;stroke-dasharray:none"
             id="path3052" /><path
             d="m 2399.69,1796.74 0,-1138.947"
             style="fill:none;stroke:#000000;stroke-opacity:1;stroke-width:28.5;stroke-linecap:butt;stroke-linejoin:miter;stroke-miterlimit:10;stroke-dasharray:none"
             id="path3054" /><path
             d="m 2399.69,551.391 0,106.402 m 39.9,0 -39.9,-106.402 -39.9,106.402"
             style="fill:none;stroke:#000000;stroke-opacity:1;stroke-width:28.5;stroke-linecap:butt;stroke-linejoin:miter;stroke-miterlimit:10;stroke-dasharray:none"
             id="path3056" /><path
             d="m 2637.23,2355.04 c -65.98,-10.34 -142.97,-25.85 -197.95,-31.02 -54.98,-5.17 -85.78,-5.17 -131.96,0 -46.19,5.17 -96.78,20.68 -145.16,31.02"
             style="fill:none;stroke:#000000;stroke-opacity:1;stroke-width:28.5;stroke-linecap:butt;stroke-linejoin:miter;stroke-miterlimit:10;stroke-dasharray:none"
             id="path3058" /><path
             d="m 1522.5,2573.98 1033.54,0"
             style="fill:none;stroke:#000000;stroke-opacity:1;stroke-width:28.5;stroke-linecap:round;stroke-linejoin:round;stroke-miterlimit:10;stroke-dasharray:none"
             id="path3060" /><path
             d="m 2556.04,2573.98 0,-350.31"
             style="fill:none;stroke:#000000;stroke-opacity:1;stroke-width:28.5;stroke-linecap:round;stroke-linejoin:round;stroke-miterlimit:10;stroke-dasharray:none"
             id="path3062" /><path
             d="m 1522.5,2573.98 0,-325.23"
             style="fill:none;stroke:#000000;stroke-opacity:1;stroke-width:28.5;stroke-linecap:round;stroke-linejoin:round;stroke-miterlimit:10;stroke-dasharray:none"
             id="path3064" /><path
             d="m 1240.68,2486.4 1050.12,0"
             style="fill:none;stroke:#000000;stroke-opacity:1;stroke-width:28.5;stroke-linecap:round;stroke-linejoin:round;stroke-miterlimit:10;stroke-dasharray:none"
             id="path3066" /><path
             d="m 2290.8,2486.4 0,-262.73"
             style="fill:none;stroke:#000000;stroke-opacity:1;stroke-width:28.5;stroke-linecap:round;stroke-linejoin:round;stroke-miterlimit:10;stroke-dasharray:none"
             id="path3068" /><path
             d="m 309.414,2999.89 0,-1695.76"
             style="fill:none;stroke:#000000;stroke-opacity:1;stroke-width:28.5;stroke-linecap:round;stroke-linejoin:round;stroke-miterlimit:10;stroke-dasharray:none"
             id="path3070" /><path
             d="m 155.895,4016.34 0,-491"
             style="fill:none;stroke:#000000;stroke-opacity:1;stroke-width:28.5;stroke-linecap:round;stroke-linejoin:round;stroke-miterlimit:10;stroke-dasharray:none"
             id="path3072" /><path
             d="m 441.156,3827.49 0,-302.15"
             style="fill:none;stroke:#000000;stroke-opacity:1;stroke-width:28.5;stroke-linecap:round;stroke-linejoin:round;stroke-miterlimit:10;stroke-dasharray:none"
             id="path3074" /><path
             d="m 441.156,3827.49 1806.654,0"
             style="fill:none;stroke:#000000;stroke-opacity:1;stroke-width:28.5;stroke-linecap:round;stroke-linejoin:round;stroke-miterlimit:10;stroke-dasharray:none"
             id="path3076" /><path
             d="m 1249.39,4016.34 0,-188.85"
             style="fill:none;stroke:#000000;stroke-opacity:1;stroke-width:28.5;stroke-linecap:round;stroke-linejoin:round;stroke-miterlimit:10;stroke-dasharray:none"
             id="path3078" /><path
             d="m 2247.81,3827.49 0,-302.15"
             style="fill:none;stroke:#000000;stroke-opacity:1;stroke-width:28.5;stroke-linecap:round;stroke-linejoin:round;stroke-miterlimit:10;stroke-dasharray:none"
             id="path3080" /><path
             d="m 155.895,3689.45 950.875,0"
             style="fill:none;stroke:#000000;stroke-opacity:1;stroke-width:28.5;stroke-linecap:round;stroke-linejoin:round;stroke-miterlimit:10;stroke-dasharray:none"
             id="path3082" /><path
             d="m 1106.77,3689.45 0,-164.11"
             style="fill:none;stroke:#000000;stroke-opacity:1;stroke-width:28.5;stroke-linecap:round;stroke-linejoin:round;stroke-miterlimit:10;stroke-dasharray:none"
             id="path3084" /><path
             d="m 1962.55,4016.34 0,-491"
             style="fill:none;stroke:#000000;stroke-opacity:1;stroke-width:28.5;stroke-linecap:round;stroke-linejoin:round;stroke-miterlimit:10;stroke-dasharray:none"
             id="path3086" /><path
             d="m 1962.55,3940.8 903.32,0"
             style="fill:none;stroke:#000000;stroke-opacity:1;stroke-width:28.5;stroke-linecap:round;stroke-linejoin:round;stroke-miterlimit:10;stroke-dasharray:none"
             id="path3088" /><path
             d="m 2865.87,3940.8 0,-415.46"
             style="fill:none;stroke:#000000;stroke-opacity:1;stroke-width:28.5;stroke-linecap:round;stroke-linejoin:round;stroke-miterlimit:10;stroke-dasharray:none"
             id="path3090" /><path
             d="m 3151.13,4016.34 0,-491"
             style="fill:none;stroke:#000000;stroke-opacity:1;stroke-width:28.5;stroke-linecap:round;stroke-linejoin:round;stroke-miterlimit:10;stroke-dasharray:none"
             id="path3092" /><path
             d="m 1344.48,3689.45 1806.65,0"
             style="fill:none;stroke:#000000;stroke-opacity:1;stroke-width:28.5;stroke-linecap:round;stroke-linejoin:round;stroke-miterlimit:10;stroke-dasharray:none"
             id="path3094" /><path
             d="m 1344.48,3689.45 0,-164.11"
             style="fill:none;stroke:#000000;stroke-opacity:1;stroke-width:28.5;stroke-linecap:round;stroke-linejoin:round;stroke-miterlimit:10;stroke-dasharray:none"
             id="path3096" /><path
             d="m 3008.5,3042.8 0,-2373.894"
             style="fill:none;stroke:#000000;stroke-opacity:1;stroke-width:28.5;stroke-linecap:butt;stroke-linejoin:miter;stroke-miterlimit:10;stroke-dasharray:none"
             id="path3098" /><path
             d="m 3008.5,562.508 0,106.398 m 39.9,0 -39.9,-106.398 -39.9,106.398"
             style="fill:none;stroke:#000000;stroke-opacity:1;stroke-width:28.5;stroke-linecap:butt;stroke-linejoin:miter;stroke-miterlimit:10;stroke-dasharray:none"
             id="path3100" /></g></g><g
         id="g3102"><g
           id="g3104"
           clip-path="url(#clipPath3106)"><g
             id="g3110"
             transform="scale(10,10)"><text
               transform="matrix(1,0,0,-0.92946305,28.6211,24.9328)"
               id="text3112"><tspan
                 style="fill:#000000;fill-opacity:1;fill-rule:nonzero;stroke:none;font-family:Times New Roman;font-style:italic;font-variant:normal;font-size:50.49065699;writing-mode:lr;-inkscape-font-specification:Times-Italic"
                 x="0"
                 y="0"
                 id="tspan3114">z</tspan></text>
<text
               transform="matrix(1,0,0,-0.92946305,47.81799,13.2004)"
               id="text3116"><tspan
                 style="fill:#000000;fill-opacity:1;fill-rule:nonzero;stroke:none;font-family:Times New Roman;font-variant:normal;font-weight:normal;font-size:29.189864;writing-mode:lr;-inkscape-font-specification:Times-Roman"
                 x="0"
                 y="0"
                 id="tspan3118">3</tspan></text>
</g></g></g><g
         id="g3120"><g
           id="g3122"
           clip-path="url(#clipPath3124)"><g
             id="g3128"
             transform="scale(10,10)"><text
               transform="matrix(0.979936,0,0,-1,116.84,24.3535)"
               id="text3130"><tspan
                 style="fill:#000000;fill-opacity:1;fill-rule:nonzero;stroke:none;font-family:Times New Roman;font-style:italic;font-variant:normal;font-size:47.5609;writing-mode:lr;-inkscape-font-specification:Times-Italic"
                 x="0"
                 y="0"
                 id="tspan3132">z</tspan></text>
<text
               transform="matrix(0.979936,0,0,-1,135.16696,12.4633)"
               id="text3134"><tspan
                 style="fill:#000000;fill-opacity:1;fill-rule:nonzero;stroke:none;font-family:Times New Roman;font-variant:normal;font-weight:normal;font-size:27.4962;writing-mode:lr;-inkscape-font-specification:Times-Roman"
                 x="0"
                 y="0"
                 id="tspan3136">2</tspan></text>
</g></g></g><g
         id="g3138"><g
           id="g3140"
           clip-path="url(#clipPath3142)"><g
             id="g3146"
             transform="scale(10,10)"><text
               transform="matrix(1,0,0,-0.80669232,225.969,24.5281)"
               id="text3148"><tspan
                 style="fill:#000000;fill-opacity:1;fill-rule:nonzero;stroke:none;font-family:Times New Roman;font-style:italic;font-variant:normal;font-size:55.08060375;writing-mode:lr;-inkscape-font-specification:Times-Italic"
                 x="0"
                 y="0"
                 id="tspan3150">z</tspan></text>
<text
               transform="matrix(1,0,0,-0.80669232,244.472,13.4195)"
               id="text3152"><tspan
                 style="fill:#000000;fill-opacity:1;fill-rule:nonzero;stroke:none;font-family:Times New Roman;font-variant:normal;font-weight:normal;font-size:31.84349148;writing-mode:lr;-inkscape-font-specification:Times-Roman"
                 x="0"
                 y="0"
                 id="tspan3154">1</tspan></text>
</g></g></g><g
         id="g3156"><g
           id="g3158"
           clip-path="url(#clipPath3160)"><g
             id="g3164"
             transform="scale(10,10)"><text
               transform="matrix(1,0,0,-0.9788567,291.204,26.1316)"
               id="text3166"><tspan
                 style="fill:#000000;fill-opacity:1;fill-rule:nonzero;stroke:none;font-family:Times New Roman;font-style:italic;font-variant:normal;font-size:46.60651576;writing-mode:lr;-inkscape-font-specification:Times-Italic"
                 x="0"
                 y="0"
                 id="tspan3168">z</tspan></text>
<text
               transform="matrix(1,0,0,-0.9788567,309.532,14.7266)"
               id="text3170"><tspan
                 style="fill:#000000;fill-opacity:1;fill-rule:nonzero;stroke:none;font-family:Times New Roman;font-variant:normal;font-weight:normal;font-size:26.94439352;writing-mode:lr;-inkscape-font-specification:Times-Roman"
                 x="0"
                 y="0"
                 id="tspan3172">0</tspan></text>
</g></g></g><g
         id="g3174"><g
           id="g3176"
           clip-path="url(#clipPath3178)"><g
             id="g3182"
             transform="scale(10,10)"><text
               transform="matrix(1,0,0,-0.9284189,40.2766,286.57)"
               id="text3184"><tspan
                 style="fill:#000000;fill-opacity:1;fill-rule:nonzero;stroke:none;font-family:Times New Roman;font-style:italic;font-variant:normal;font-size:31.06324087;writing-mode:lr;-inkscape-font-specification:Times-Italic"
                 x="0"
                 y="0"
                 id="tspan3186">x</tspan></text>
<text
               transform="matrix(1,0,0,-0.9284189,52.8148,279.36)"
               id="text3188"><tspan
                 style="fill:#000000;fill-opacity:1;fill-rule:nonzero;stroke:none;font-family:Times New Roman;font-variant:normal;font-weight:normal;font-size:17.9584883;writing-mode:lr;-inkscape-font-specification:Times-Roman"
                 x="0"
                 y="0"
                 id="tspan3190">1</tspan></text>
</g></g></g><g
         id="g3192"><g
           id="g3194"
           clip-path="url(#clipPath3196)"><g
             id="g3200"
             transform="scale(10,10)"><text
               transform="matrix(0.923227,0,0,-1,133.177,286.57)"
               id="text3202"><tspan
                 style="fill:#000000;fill-opacity:1;fill-rule:nonzero;stroke:none;font-family:Times New Roman;font-style:italic;font-variant:normal;font-size:28.8397;writing-mode:lr;-inkscape-font-specification:Times-Italic"
                 x="0"
                 y="0"
                 id="tspan3204">x</tspan></text>
<text
               transform="matrix(0.923227,0,0,-1,145.449,279.36)"
               id="text3206"><tspan
                 style="fill:#000000;fill-opacity:1;fill-rule:nonzero;stroke:none;font-family:Times New Roman;font-variant:normal;font-weight:normal;font-size:16.673;writing-mode:lr;-inkscape-font-specification:Times-Roman"
                 x="0"
                 y="0"
                 id="tspan3208">2</tspan></text>
</g></g></g><g
         id="g3210"><g
           id="g3212"
           clip-path="url(#clipPath3214)"><g
             id="g3218"
             transform="scale(10,10)"><text
               transform="matrix(1,0,0,-0.94662905,225.916,288.125)"
               id="text3220"><tspan
                 style="fill:#000000;fill-opacity:1;fill-rule:nonzero;stroke:none;font-family:Times New Roman;font-style:italic;font-variant:normal;font-size:28.67363925;writing-mode:lr;-inkscape-font-specification:Times-Italic"
                 x="0"
                 y="0"
                 id="tspan3222">x</tspan></text>
<text
               transform="matrix(1,0,0,-0.94662905,238.759,281.339)"
               id="text3224"><tspan
                 style="fill:#000000;fill-opacity:1;fill-rule:nonzero;stroke:none;font-family:Times New Roman;font-variant:normal;font-weight:normal;font-size:16.57692624;writing-mode:lr;-inkscape-font-specification:Times-Roman"
                 x="0"
                 y="0"
                 id="tspan3226">3</tspan></text>
</g></g></g><g
         id="g3228"><g
           id="g3230"
           clip-path="url(#clipPath3232)"><g
             id="g3236"
             transform="scale(10,10)"><text
               transform="matrix(0.984775,0,0,-1,323.098,286.57)"
               id="text3238"><tspan
                 style="fill:#000000;fill-opacity:1;fill-rule:nonzero;stroke:none;font-family:Times New Roman;font-style:italic;font-variant:normal;font-size:28.8397;writing-mode:lr;-inkscape-font-specification:Times-Italic"
                 x="0"
                 y="0"
                 id="tspan3240">x</tspan></text>
<text
               transform="matrix(0.984775,0,0,-1,336.411,279.36)"
               id="text3242"><tspan
                 style="fill:#000000;fill-opacity:1;fill-rule:nonzero;stroke:none;font-family:Times New Roman;font-variant:normal;font-weight:normal;font-size:16.673;writing-mode:lr;-inkscape-font-specification:Times-Roman"
                 x="0"
                 y="0"
                 id="tspan3244">4</tspan></text>
</g></g></g><g
         id="g3246"><g
           id="g3248"
           clip-path="url(#clipPath3250)"><path
             d="m 583.656,1586.71 797.184,0"
             style="fill:none;stroke:#000000;stroke-opacity:1;stroke-width:28.5;stroke-linecap:round;stroke-linejoin:round;stroke-miterlimit:10;stroke-dasharray:none"
             id="path3254" /><path
             d="m 592.586,1586.71 0,-269.91"
             style="fill:none;stroke:#000000;stroke-opacity:1;stroke-width:28.5;stroke-linecap:round;stroke-linejoin:round;stroke-miterlimit:10;stroke-dasharray:none"
             id="path3256" /><path
             d="m 60.6641,2740.66 3372.9259,0"
             style="fill:none;stroke:#ff241a;stroke-opacity:1;stroke-width:28.5;stroke-linecap:round;stroke-linejoin:round;stroke-miterlimit:10;stroke-dasharray:28.5,85.5;stroke-dashoffset:0"
             id="path3258" /><path
             d="m 60.6641,1703.83 3372.9259,0"
             style="fill:none;stroke:#ff241a;stroke-opacity:1;stroke-width:28.5;stroke-linecap:round;stroke-linejoin:round;stroke-miterlimit:10;stroke-dasharray:28.5,85.5;stroke-dashoffset:0"
             id="path3260" /><path
             d="m 60.6641,766.332 3378.3859,0"
             style="fill:none;stroke:#ff241a;stroke-opacity:1;stroke-width:28.5;stroke-linecap:round;stroke-linejoin:round;stroke-miterlimit:10;stroke-dasharray:28.5,85.5;stroke-dashoffset:0"
             id="path3262" /><path
             d="m 2740.91,3525.34 0,-262.73 c 0,-131.36 63.17,-262.72 252.66,-262.72 189.48,0 252.65,131.36 252.65,262.72 l 0,262.73 -505.31,0 z"
             style="fill:#ffffff;fill-opacity:1;fill-rule:nonzero;stroke:none"
             id="path3264" /><path
             d="m 2740.91,3525.34 0,-262.73 c 0,-131.36 63.17,-262.72 252.66,-262.72 189.48,0 252.65,131.36 252.65,262.72 l 0,262.73 -505.31,0 z"
             style="fill:none;stroke:#000000;stroke-opacity:1;stroke-width:28.5;stroke-linecap:round;stroke-linejoin:round;stroke-miterlimit:10;stroke-dasharray:none"
             id="path3266" /><path
             d="m 60.6641,3615.66 3372.9259,0"
             style="fill:none;stroke:#ff241a;stroke-opacity:1;stroke-width:28.5;stroke-linecap:round;stroke-linejoin:round;stroke-miterlimit:10;stroke-dasharray:28.5,85.5;stroke-dashoffset:0"
             id="path3268" /></g></g><g
         id="g3270"><g
           id="g3272"
           clip-path="url(#clipPath3274)"><g
             id="g3278"
             transform="scale(10,10)"><text
               transform="matrix(1,0,0,-0.85992656,154.43,150.071)"
               id="text3280"><tspan
                 style="fill:#000000;fill-opacity:1;fill-rule:nonzero;stroke:none;font-family:Times New Roman;font-style:italic;font-variant:normal;font-size:34.41561326;writing-mode:lr;-inkscape-font-specification:Times-Italic"
                 x="0"
                 y="0"
                 id="tspan3282">x</tspan></text>
<text
               transform="matrix(1,0,0,-0.85992656,170.29368,142.67217)"
               id="text3284"><tspan
                 style="fill:#000000;fill-opacity:1;fill-rule:nonzero;stroke:none;font-family:Times New Roman;font-variant:normal;font-weight:normal;font-size:19.89658274;writing-mode:lr;-inkscape-font-specification:Times-Roman"
                 x="0"
                 y="0"
                 id="tspan3286">5</tspan></text>
</g></g></g><g
         id="g3288"><g
           id="g3290"
           clip-path="url(#clipPath3292)"><g
             id="g3296"
             transform="scale(10,10)"><text
               transform="matrix(0.876968,0,0,-1,12.0777,420.222)"
               id="text3298"><tspan
                 style="fill:#000000;fill-opacity:1;fill-rule:nonzero;stroke:none;font-family:Times New Roman;font-style:italic;font-variant:normal;font-size:44.6124;writing-mode:lr;-inkscape-font-specification:Times-Italic"
                 x="0"
                 y="0"
                 id="tspan3300">a</tspan></text>
<text
               transform="matrix(0.876968,0,0,-1,29.2961,409.069)"
               id="text3302"><tspan
                 style="fill:#000000;fill-opacity:1;fill-rule:nonzero;stroke:none;font-family:Times New Roman;font-variant:normal;font-weight:normal;font-size:25.7915;writing-mode:lr;-inkscape-font-specification:Times-Roman"
                 x="0"
                 y="0"
                 id="tspan3304">1</tspan></text>
</g></g></g><g
         id="g3306"><g
           id="g3308"
           clip-path="url(#clipPath3310)"><g
             id="g3314"
             transform="scale(10,10)"><text
               transform="matrix(0.964862,0,0,-1,184.731,424.108)"
               id="text3316"><tspan
                 style="fill:#000000;fill-opacity:1;fill-rule:nonzero;stroke:none;font-family:Times New Roman;font-style:italic;font-variant:normal;font-size:40.3732;writing-mode:lr;-inkscape-font-specification:Times-Italic"
                 x="0"
                 y="0"
                 id="tspan3318">a</tspan></text>
<text
               transform="matrix(0.964862,0,0,-1,204.107,414.014)"
               id="text3320"><tspan
                 style="fill:#000000;fill-opacity:1;fill-rule:nonzero;stroke:none;font-family:Times New Roman;font-variant:normal;font-weight:normal;font-size:23.3407;writing-mode:lr;-inkscape-font-specification:Times-Roman"
                 x="0"
                 y="0"
                 id="tspan3322">0</tspan></text>
</g></g></g><g
         id="g3324"><g
           id="g3326"
           clip-path="url(#clipPath3328)"><path
             d="m 1376.66,1792.23 0,-545.37"
             style="fill:none;stroke:#000000;stroke-opacity:1;stroke-width:28.5;stroke-linecap:round;stroke-linejoin:round;stroke-miterlimit:10;stroke-dasharray:none"
             id="path3332" /><path
             d="m 1492.95,1447.47 c -65.98,-10.34 -142.97,-25.85 -197.95,-31.02 -54.98,-5.16 -85.78,-5.16 -131.96,0 -46.19,5.17 -96.78,20.68 -145.16,31.02"
             style="fill:none;stroke:#000000;stroke-opacity:1;stroke-width:28.5;stroke-linecap:butt;stroke-linejoin:miter;stroke-miterlimit:10;stroke-dasharray:none"
             id="path3334" /><path
             d="m 173.277,1328.83 0,-262.72 c 0,-131.368 63.164,-262.731 252.653,-262.731 189.488,0 252.652,131.363 252.652,262.731 l 0,262.72 -505.305,0 z"
             style="fill:#ffffff;fill-opacity:1;fill-rule:nonzero;stroke:none"
             id="path3336" /><path
             d="m 173.277,1328.83 0,-262.72 c 0,-131.368 63.164,-262.731 252.653,-262.731 189.488,0 252.652,131.363 252.652,262.731 l 0,262.72 -505.305,0 z"
             style="fill:none;stroke:#000000;stroke-opacity:1;stroke-width:28.5;stroke-linecap:round;stroke-linejoin:round;stroke-miterlimit:10;stroke-dasharray:none"
             id="path3338" /><path
             d="m 1130.49,2317.69 0,-262.73 c 0,-131.36 63.16,-262.73 252.65,-262.73 189.49,0 252.65,131.37 252.65,262.73 l 0,262.73 -505.3,0 z"
             style="fill:#ffffff;fill-opacity:1;fill-rule:nonzero;stroke:none"
             id="path3340" /><path
             d="m 1130.49,2317.69 0,-262.73 c 0,-131.36 63.16,-262.73 252.65,-262.73 189.49,0 252.65,131.37 252.65,262.73 l 0,262.73 -505.3,0 z"
             style="fill:none;stroke:#000000;stroke-opacity:1;stroke-width:28.5;stroke-linecap:round;stroke-linejoin:round;stroke-miterlimit:10;stroke-dasharray:none"
             id="path3342" /><path
             d="m 285.891,1516.33 844.599,0 0,-250"
             style="fill:none;stroke:#000000;stroke-opacity:1;stroke-width:28.5;stroke-linecap:round;stroke-linejoin:round;stroke-miterlimit:10;stroke-dasharray:none"
             id="path3344" /><path
             d="m 1017.88,1328.74 0,-101.05 c 23.75,-252.627 95.01,-277.889 237.53,-404.206 142.52,126.317 213.78,151.579 237.54,404.206 l 0,101.05 c -95.02,-25.26 -106.9,-37.89 -237.54,-50.53 -130.64,12.64 -142.52,25.27 -237.53,50.53"
             style="fill:#ffffff;fill-opacity:1;fill-rule:nonzero;stroke:none"
             id="path3346" /><path
             d="m 1017.88,1328.74 0,-101.05 c 23.75,-252.627 95.01,-277.889 237.53,-404.202 142.52,126.313 213.78,151.575 237.54,404.202 l 0,101.05 c -95.02,-25.26 -106.9,-37.89 -237.54,-50.53 -130.64,12.64 -142.52,25.27 -237.53,50.53"
             style="fill:none;stroke:#000000;stroke-opacity:1;stroke-width:28.5;stroke-linecap:round;stroke-linejoin:round;stroke-miterlimit:10;stroke-dasharray:none"
             id="path3348" /></g></g><g
         id="g3350"><g
           id="g3352"
           clip-path="url(#clipPath3354)"><g
             id="g3358"
             transform="scale(10,10)"><text
               transform="matrix(1,0,0,-0.89117823,109.151,417.505)"
               id="text3360"><tspan
                 style="fill:#000000;fill-opacity:1;fill-rule:nonzero;stroke:none;font-family:Times New Roman;font-style:italic;font-variant:normal;font-size:42.10044509;writing-mode:lr;-inkscape-font-specification:Times-Italic"
                 x="0"
                 y="0"
                 id="tspan3362">b</tspan></text>
<text
               transform="matrix(1,0,0,-0.89117823,126.145,408.126)"
               id="text3364"><tspan
                 style="fill:#000000;fill-opacity:1;fill-rule:nonzero;stroke:none;font-family:Times New Roman;font-variant:normal;font-weight:normal;font-size:24.33935138;writing-mode:lr;-inkscape-font-specification:Times-Roman"
                 x="0"
                 y="0"
                 id="tspan3366">1</tspan></text>
</g></g></g><g
         id="g3368"><g
           id="g3370"
           clip-path="url(#clipPath3372)"><g
             id="g3376"
             transform="scale(10,10)"><text
               transform="matrix(1,0,0,-0.94173486,298.169,420.171)"
               id="text3378"><tspan
                 style="fill:#000000;fill-opacity:1;fill-rule:nonzero;stroke:none;font-family:Times New Roman;font-style:italic;font-variant:normal;font-size:38.86189351;writing-mode:lr;-inkscape-font-specification:Times-Italic"
                 x="0"
                 y="0"
                 id="tspan3380">b</tspan></text>
<text
               transform="matrix(1,0,0,-0.94173486,316.082,411.022)"
               id="text3382"><tspan
                 style="fill:#000000;fill-opacity:1;fill-rule:nonzero;stroke:none;font-family:Times New Roman;font-variant:normal;font-weight:normal;font-size:22.46704546;writing-mode:lr;-inkscape-font-specification:Times-Roman"
                 x="0"
                 y="0"
                 id="tspan3384">0</tspan></text>
</g></g></g><g
         id="g3386"><g
           id="g3388"
           clip-path="url(#clipPath3390)"><path
             d="m 421.223,3354.07 c 57.84,-51.24 57.84,-134.33 0,-185.57 -57.84,-51.25 -151.621,-51.25 -209.461,0 -57.84,51.24 -57.84,134.33 0,185.57 57.84,51.25 151.621,51.25 209.461,0"
             style="fill:#ffffff;fill-opacity:1;fill-rule:nonzero;stroke:none"
             id="path3394" /><g
             id="g3396"
             transform="scale(10,10)"><text
               transform="matrix(1,0,0,-1,24.5504,316.988)"
               id="text3398"><tspan
                 style="fill:#000000;fill-opacity:1;fill-rule:nonzero;stroke:none;font-family:Helvetica CY;font-variant:normal;font-weight:normal;font-size:25.65;writing-mode:lr;-inkscape-font-specification:HelveticaNeue"
                 x="0"
                 y="0"
                 id="tspan3400">6</tspan></text>
</g><path
             d="m 1336.81,3354.07 c 57.84,-51.24 57.84,-134.33 0,-185.57 -57.84,-51.25 -151.61,-51.25 -209.46,0 -57.84,51.24 -57.84,134.33 0,185.57 57.85,51.25 151.62,51.25 209.46,0"
             style="fill:#ffffff;fill-opacity:1;fill-rule:nonzero;stroke:none"
             id="path3402" /><g
             id="g3404"
             transform="scale(10,10)"><text
               transform="matrix(1,0,0,-1,116.109,316.988)"
               id="text3406"><tspan
                 style="fill:#000000;fill-opacity:1;fill-rule:nonzero;stroke:none;font-family:Helvetica CY;font-variant:normal;font-weight:normal;font-size:25.65;writing-mode:lr;-inkscape-font-specification:HelveticaNeue"
                 x="0"
                 y="0"
                 id="tspan3408">7</tspan></text>
</g><path
             d="m 2225.47,3354.07 c 57.85,-51.24 57.85,-134.33 0,-185.57 -57.84,-51.25 -151.61,-51.25 -209.45,0 -57.85,51.24 -57.85,134.33 0,185.57 57.84,51.25 151.61,51.25 209.45,0"
             style="fill:#ffffff;fill-opacity:1;fill-rule:nonzero;stroke:none"
             id="path3410" /><g
             id="g3412"
             transform="scale(10,10)"><text
               transform="matrix(1,0,0,-1,204.976,316.988)"
               id="text3414"><tspan
                 style="fill:#000000;fill-opacity:1;fill-rule:nonzero;stroke:none;font-family:Helvetica CY;font-variant:normal;font-weight:normal;font-size:25.65;writing-mode:lr;-inkscape-font-specification:HelveticaNeue"
                 x="0"
                 y="0"
                 id="tspan3416">8</tspan></text>
</g><path
             d="m 3087.21,3354.07 c 57.84,-51.24 57.84,-134.33 0,-185.57 -57.84,-51.25 -151.62,-51.25 -209.46,0 -57.84,51.24 -57.84,134.33 0,185.57 57.84,51.25 151.62,51.25 209.46,0"
             style="fill:#ffffff;fill-opacity:1;fill-rule:nonzero;stroke:none"
             id="path3418" /><g
             id="g3420"
             transform="scale(10,10)"><text
               transform="matrix(1,0,0,-1,291.149,316.988)"
               id="text3422"><tspan
                 style="fill:#000000;fill-opacity:1;fill-rule:nonzero;stroke:none;font-family:Helvetica CY;font-variant:normal;font-weight:normal;font-size:25.65;writing-mode:lr;-inkscape-font-specification:HelveticaNeue"
                 x="0"
                 y="0"
                 id="tspan3424">4</tspan></text>
</g><path
             d="m 1471.46,2149.11 c 57.84,-51.25 57.84,-134.33 0,-185.58 -57.84,-51.24 -151.62,-51.24 -209.46,0 -57.84,51.25 -57.84,134.33 0,185.58 57.84,51.25 151.62,51.25 209.46,0"
             style="fill:#ffffff;fill-opacity:1;fill-rule:nonzero;stroke:none"
             id="path3426" /><g
             id="g3428"
             transform="scale(10,10)"><text
               transform="matrix(1,0,0,-1,129.574,196.491)"
               id="text3430"><tspan
                 style="fill:#000000;fill-opacity:1;fill-rule:nonzero;stroke:none;font-family:Helvetica CY;font-variant:normal;font-weight:normal;font-size:25.65;writing-mode:lr;-inkscape-font-specification:HelveticaNeue"
                 x="0"
                 y="0"
                 id="tspan3432">5</tspan></text>
</g><path
             d="m 1363.74,1199.75 c 57.84,-51.25 57.84,-134.34 0,-185.58 -57.84,-51.248 -151.62,-51.248 -209.46,0 -57.84,51.24 -57.84,134.33 0,185.58 57.84,51.24 151.62,51.24 209.46,0"
             style="fill:#ffffff;fill-opacity:1;fill-rule:nonzero;stroke:none"
             id="path3434" /><g
             id="g3436"
             transform="scale(10,10)"><text
               transform="matrix(1,0,0,-1,118.802,101.555)"
               id="text3438"><tspan
                 style="fill:#000000;fill-opacity:1;fill-rule:nonzero;stroke:none;font-family:Helvetica CY;font-variant:normal;font-weight:normal;font-size:25.65;writing-mode:lr;-inkscape-font-specification:HelveticaNeue"
                 x="0"
                 y="0"
                 id="tspan3440">2</tspan></text>
</g><path
             d="m 2494.77,2142.27 c 57.84,-51.25 57.84,-134.34 0,-185.58 -57.84,-51.25 -151.62,-51.25 -209.47,0 -57.84,51.24 -57.84,134.33 0,185.58 57.85,51.24 151.63,51.24 209.47,0"
             style="fill:#ffffff;fill-opacity:1;fill-rule:nonzero;stroke:none"
             id="path3442" /><g
             id="g3444"
             transform="scale(10,10)"><text
               transform="matrix(1,0,0,-1,231.905,195.807)"
               id="text3446"><tspan
                 style="fill:#000000;fill-opacity:1;fill-rule:nonzero;stroke:none;font-family:Helvetica CY;font-variant:normal;font-weight:normal;font-size:25.65;writing-mode:lr;-inkscape-font-specification:HelveticaNeue"
                 x="0"
                 y="0"
                 id="tspan3448">3</tspan></text>
</g><path
             d="m 528.938,1199.75 c 57.839,-51.25 57.839,-134.34 0,-185.58 -57.84,-51.248 -151.618,-51.248 -209.458,0 -57.843,51.24 -57.843,134.33 0,185.58 57.84,51.24 151.618,51.24 209.458,0"
             style="fill:#ffffff;fill-opacity:1;fill-rule:nonzero;stroke:none"
             id="path3450" /><g
             id="g3452"
             transform="scale(10,10)"><text
               transform="matrix(1,0,0,-1,35.3219,101.555)"
               id="text3454"><tspan
                 style="fill:#000000;fill-opacity:1;fill-rule:nonzero;stroke:none;font-family:Helvetica CY;font-variant:normal;font-weight:normal;font-size:25.65;writing-mode:lr;-inkscape-font-specification:HelveticaNeue"
                 x="0"
                 y="0"
                 id="tspan3456">1</tspan></text>
</g></g></g></g></g></svg>