<?xml version="1.0" encoding="UTF-8" standalone="no"?>
<!-- Created with Inkscape (http://www.inkscape.org/) -->

<svg
   xmlns:dc="http://purl.org/dc/elements/1.1/"
   xmlns:cc="http://creativecommons.org/ns#"
   xmlns:rdf="http://www.w3.org/1999/02/22-rdf-syntax-ns#"
   xmlns:svg="http://www.w3.org/2000/svg"
   xmlns="http://www.w3.org/2000/svg"
   xmlns:sodipodi="http://sodipodi.sourceforge.net/DTD/sodipodi-0.dtd"
   xmlns:inkscape="http://www.inkscape.org/namespaces/inkscape"
   version="1.1"
   id="svg4485"
   xml:space="preserve"
   width="343.99368"
   height="122.32126"
   viewBox="0 0 343.99368 122.32126"
   sodipodi:docname="mod2sumfig.svg"
   inkscape:version="0.92.0 r15299"><metadata
     id="metadata4491"><rdf:RDF><cc:Work
         rdf:about=""><dc:format>image/svg+xml</dc:format><dc:type
           rdf:resource="http://purl.org/dc/dcmitype/StillImage" /><dc:title></dc:title></cc:Work></rdf:RDF></metadata><defs
     id="defs4489" /><sodipodi:namedview
     pagecolor="#ffffff"
     bordercolor="#666666"
     borderopacity="1"
     objecttolerance="10"
     gridtolerance="10"
     guidetolerance="10"
     inkscape:pageopacity="0"
     inkscape:pageshadow="2"
     inkscape:window-width="1920"
     inkscape:window-height="1017"
     id="namedview4487"
     showgrid="false"
     inkscape:zoom="4.1861234"
     inkscape:cx="171.99684"
     inkscape:cy="61.160629"
     inkscape:window-x="1912"
     inkscape:window-y="-8"
     inkscape:window-maximized="1"
     inkscape:current-layer="g4493" /><g
     id="g4493"
     inkscape:groupmode="layer"
     inkscape:label="mod2sumfig"
     transform="matrix(1.3333333,0,0,-1.3333333,0,122.32126)"><g
       id="g4495"><g
         id="g4497"
         transform="rotate(180,0,45.870472)"><path
           d="m -185.43,6.57 c 0,3.535 -5.168,6.395 -11.543,6.395 -6.375,0 -11.543,-2.86 -11.543,-6.395 0,-3.531 5.168,-6.394 11.543,-6.394 6.375,0 11.543,2.863 11.543,6.394 z"
           style="fill:none;stroke:#000000;stroke-width:0.35524401;stroke-linecap:butt;stroke-linejoin:miter;stroke-miterlimit:4;stroke-dasharray:none;stroke-opacity:1"
           id="path4499"
           inkscape:connector-curvature="0" /></g><text
         transform="matrix(1,0,0,-1,30.322382,80.544511)"
         style="font-variant:normal;font-weight:normal;font-size:12.80392361px;font-family:'Times New Roman';-inkscape-font-specification:TimesNewRomanPSMT;writing-mode:lr-tb;fill:#000000;fill-opacity:1;fill-rule:nonzero;stroke:none"
         id="text4503"><tspan
           x="0"
           y="0"
           id="tspan4501">a</tspan></text>
<g
         id="g4505"
         transform="rotate(180,0,45.870472)"><path
           d="m -22.027,8.438 c 0,3.531 -5.168,6.394 -11.543,6.394 -6.375,0 -11.543,-2.863 -11.543,-6.394 0,-3.532 5.168,-6.395 11.543,-6.395 6.375,0 11.543,2.863 11.543,6.395 z"
           style="fill:none;stroke:#000000;stroke-width:0.35524401;stroke-linecap:butt;stroke-linejoin:miter;stroke-miterlimit:4;stroke-dasharray:none;stroke-opacity:1"
           id="path4507"
           inkscape:connector-curvature="0" /></g><g
         id="g4509"
         transform="matrix(1,0,0,-1,0,91.740944)"><path
           d="M 31.043,14.684 C 29.371,18.59 27.18,23.703 25.496,27.637"
           style="fill:none;stroke:#000000;stroke-width:0.35524401;stroke-linecap:butt;stroke-linejoin:miter;stroke-miterlimit:4;stroke-dasharray:none;stroke-opacity:1"
           id="path4511"
           inkscape:connector-curvature="0" /></g><g
         id="g4513"
         transform="rotate(180,0,45.870472)"><path
           d="m -32.684,59.59 c 0,3.531 -5.168,6.394 -11.543,6.394 -6.375,0 -11.543,-2.863 -11.543,-6.394 0,-3.531 5.168,-6.395 11.543,-6.395 6.375,0 11.543,2.864 11.543,6.395 z"
           style="fill:none;stroke:#000000;stroke-width:0.35524401;stroke-linecap:butt;stroke-linejoin:miter;stroke-miterlimit:4;stroke-dasharray:none;stroke-opacity:1"
           id="path4515"
           inkscape:connector-curvature="0" /></g><g
         id="g4517"
         transform="matrix(1,0,0,-1,0,91.740944)"><path
           d="m 34.855,14.875 c 2.051,9.695 6.032,28.547 8.083,38.254"
           style="fill:none;stroke:#000000;stroke-width:0.35524401;stroke-linecap:butt;stroke-linejoin:miter;stroke-miterlimit:4;stroke-dasharray:1.776222, 0.710489;stroke-dashoffset:0;stroke-opacity:1"
           id="path4519"
           inkscape:connector-curvature="0" /></g><g
         id="g4521"
         transform="rotate(180,0,45.870472)"><path
           d="m -26.109,78.773 h -19.184 v 12.789 h 19.184 z"
           style="fill:none;stroke:#000000;stroke-width:0.35524401;stroke-linecap:butt;stroke-linejoin:miter;stroke-miterlimit:4;stroke-dasharray:none;stroke-opacity:1"
           id="path4523"
           inkscape:connector-curvature="0" /></g><g
         id="g4525"
         transform="rotate(180,0,45.870472)"><path
           d="M -0.176,78.773 H -19.36 v 12.789 h 19.184 z"
           style="fill:none;stroke:#000000;stroke-width:0.35524401;stroke-linecap:butt;stroke-linejoin:miter;stroke-miterlimit:4;stroke-dasharray:none;stroke-opacity:1"
           id="path4527"
           inkscape:connector-curvature="0" /></g><text
         transform="matrix(1,0,0,-1,20.278734,54.240805)"
         style="font-variant:normal;font-weight:normal;font-size:10.16352367px;font-family:'Times New Roman';-inkscape-font-specification:TimesNewRomanPSMT;writing-mode:lr-tb;fill:#000000;fill-opacity:1;fill-rule:nonzero;stroke:none"
         id="text4531"><tspan
           x="0"
           y="0"
           id="tspan4529">b</tspan></text>
<text
         transform="matrix(1,0,0,-1,41.399927,29.593226)"
         style="font-variant:normal;font-weight:normal;font-size:11.86826706px;font-family:'Times New Roman';-inkscape-font-specification:TimesNewRomanPSMT;writing-mode:lr-tb;fill:#000000;fill-opacity:1;fill-rule:nonzero;stroke:none"
         id="text4535"><tspan
           x="0"
           y="0"
           id="tspan4533">c</tspan></text>
<g
         id="g4537"
         transform="rotate(180,0,45.870472)"><path
           d="m -11.371,34.016 c 0,3.531 -5.168,6.39 -11.543,6.39 -6.375,0 -11.543,-2.859 -11.543,-6.39 0,-3.536 5.168,-6.395 11.543,-6.395 6.375,0 11.543,2.859 11.543,6.395 z"
           style="fill:none;stroke:#000000;stroke-width:0.35524401;stroke-linecap:butt;stroke-linejoin:miter;stroke-miterlimit:4;stroke-dasharray:none;stroke-opacity:1"
           id="path4539"
           inkscape:connector-curvature="0" /></g><text
         transform="matrix(1,0,0,-0.93209516,32.574508,3.124465)"
         style="font-variant:normal;font-weight:normal;font-size:10.89336205px;font-family:'Times New Roman';-inkscape-font-specification:TimesNewRomanPSMT;writing-mode:lr-tb;fill:#000000;fill-opacity:1;fill-rule:nonzero;stroke:none"
         id="text4543"><tspan
           x="0"
           y="0"
           id="tspan4541">0</tspan></text>
<g
         id="g4545"
         transform="matrix(1,0,0,-1,0,91.740944)"><path
           d="m 24.027,40.473 c 1.215,6.398 3.293,16.726 5.637,25.511 1.149,4.313 2.688,9.102 3.926,12.77"
           style="fill:none;stroke:#000000;stroke-width:0.35524401;stroke-linecap:butt;stroke-linejoin:miter;stroke-miterlimit:4;stroke-dasharray:1.776222, 0.710489;stroke-dashoffset:0;stroke-opacity:1"
           id="path4547"
           inkscape:connector-curvature="0" /></g><text
         transform="matrix(1,0,0,-1,7.190195,3.165439)"
         style="font-variant:normal;font-weight:normal;font-size:9.66727924px;font-family:'Times New Roman';-inkscape-font-specification:TimesNewRomanPSMT;writing-mode:lr-tb;fill:#000000;fill-opacity:1;fill-rule:nonzero;stroke:none"
         id="text4551"><tspan
           x="0"
           y="0"
           id="tspan4549">1</tspan></text>
<g
         id="g4553"
         transform="matrix(1,0,0,-1,0,91.740944)"><path
           d="M 21.355,40.355 C 18.84,50.012 13.906,68.93 11.367,78.68"
           style="fill:none;stroke:#000000;stroke-width:0.35524401;stroke-linecap:butt;stroke-linejoin:miter;stroke-miterlimit:4;stroke-dasharray:none;stroke-opacity:1"
           id="path4555"
           inkscape:connector-curvature="0" /></g><g
         id="g4557"
         transform="matrix(1,0,0,-1,0,91.740944)"><path
           d="m 42.164,65.965 c -1.32,3.855 -3.027,8.836 -4.359,12.711"
           style="fill:none;stroke:#000000;stroke-width:0.35524401;stroke-linecap:butt;stroke-linejoin:miter;stroke-miterlimit:4;stroke-dasharray:1.776222, 0.710489;stroke-dashoffset:0;stroke-opacity:1"
           id="path4559"
           inkscape:connector-curvature="0" /></g><g
         id="g4561"
         transform="matrix(1,0,0,-1,0,91.740944)"><path
           d="M 37.422,64.859 C 31.891,68.852 24.063,74.5 18.148,78.77"
           style="fill:none;stroke:#000000;stroke-width:0.35524401;stroke-linecap:butt;stroke-linejoin:miter;stroke-miterlimit:4;stroke-dasharray:none;stroke-opacity:1"
           id="path4563"
           inkscape:connector-curvature="0" /></g><text
         transform="matrix(1,0,0,-1,105.34582,70.391586)"
         style="font-variant:normal;font-weight:normal;font-size:12.78491306px;font-family:'Times New Roman';-inkscape-font-specification:TimesNewRomanPSMT;writing-mode:lr-tb;fill:#000000;fill-opacity:1;fill-rule:nonzero;stroke:none"
         id="text4567"><tspan
           x="0"
           y="0"
           id="tspan4565">c</tspan></text>
<text
         transform="matrix(1,0,0,-1,116.15742,43.328169)"
         style="font-variant:normal;font-weight:normal;font-size:10.13427258px;font-family:'Times New Roman';-inkscape-font-specification:TimesNewRomanPSMT;writing-mode:lr-tb;fill:#000000;fill-opacity:1;fill-rule:nonzero;stroke:none"
         id="text4571"><tspan
           x="0"
           y="0"
           id="tspan4569">d</tspan></text>
<g
         id="g4573"
         transform="rotate(180,0,45.870472)"><path
           d="m -96.398,18.777 c 0,3.606 -5.278,6.528 -11.79,6.528 -6.507,0 -11.785,-2.922 -11.785,-6.528 0,-3.609 5.278,-6.531 11.785,-6.531 6.512,0 11.79,2.922 11.79,6.531 z"
           style="fill:none;stroke:#000000;stroke-width:0.362784;stroke-linecap:butt;stroke-linejoin:miter;stroke-miterlimit:4;stroke-dasharray:none;stroke-opacity:1"
           id="path4575"
           inkscape:connector-curvature="0" /></g><g
         id="g4577"
         transform="rotate(180,0,45.870472)"><path
           d="m -107.281,44.898 c 0,3.606 -5.278,6.528 -11.789,6.528 -6.508,0 -11.789,-2.922 -11.789,-6.528 0,-3.609 5.281,-6.531 11.789,-6.531 6.511,0 11.789,2.922 11.789,6.531 z"
           style="fill:none;stroke:#000000;stroke-width:0.362784;stroke-linecap:butt;stroke-linejoin:miter;stroke-miterlimit:4;stroke-dasharray:none;stroke-opacity:1"
           id="path4579"
           inkscape:connector-curvature="0" /></g><g
         id="g4581"
         transform="matrix(1,0,0,-1,0,91.740944)"><path
           d="m 110.766,25.156 c 1.711,3.992 3.945,9.211 5.668,13.227"
           style="fill:none;stroke:#000000;stroke-width:0.362784;stroke-linecap:butt;stroke-linejoin:miter;stroke-miterlimit:4;stroke-dasharray:1.813921, 0.725568;stroke-dashoffset:0;stroke-opacity:1"
           id="path4583"
           inkscape:connector-curvature="0" /></g><g
         id="g4585"
         transform="rotate(180,0,45.870472)"><path
           d="m -87.508,64.488 h -19.59 v 13.059 h 19.59 z"
           style="fill:none;stroke:#000000;stroke-width:0.362784;stroke-linecap:butt;stroke-linejoin:miter;stroke-miterlimit:4;stroke-dasharray:none;stroke-opacity:1"
           id="path4587"
           inkscape:connector-curvature="0" /></g><g
         id="g4589"
         transform="matrix(1,0,0,-1,0,91.740944)"><path
           d="m 106.875,25.352 c -2.094,9.902 -6.16,29.152 -8.254,39.066"
           style="fill:none;stroke:#000000;stroke-width:0.362784;stroke-linecap:butt;stroke-linejoin:miter;stroke-miterlimit:4;stroke-dasharray:none;stroke-opacity:1"
           id="path4591"
           inkscape:connector-curvature="0" /></g><g
         id="g4593"
         transform="rotate(180,0,45.870472)"><path
           d="m -113.629,64.488 h -19.59 v 13.059 h 19.59 z"
           style="fill:none;stroke:#000000;stroke-width:0.362784;stroke-linecap:butt;stroke-linejoin:miter;stroke-miterlimit:4;stroke-dasharray:none;stroke-opacity:1"
           id="path4595"
           inkscape:connector-curvature="0" /></g><g
         id="g4597"
         transform="matrix(1,0,0,-1,0,91.740944)"><path
           d="m 120.125,51.406 c 0.672,3.934 1.547,9.024 2.223,12.981"
           style="fill:none;stroke:#000000;stroke-width:0.362784;stroke-linecap:butt;stroke-linejoin:miter;stroke-miterlimit:4;stroke-dasharray:1.813921, 0.725568;stroke-dashoffset:0;stroke-opacity:1"
           id="path4599"
           inkscape:connector-curvature="0" /></g><g
         id="g4601"
         transform="matrix(1,0,0,-1,0,91.740944)"><path
           d="m 114.238,50.895 c -3.406,3.976 -7.972,9.304 -11.508,13.425"
           style="fill:none;stroke:#000000;stroke-width:0.362784;stroke-linecap:butt;stroke-linejoin:miter;stroke-miterlimit:4;stroke-dasharray:none;stroke-opacity:1"
           id="path4603"
           inkscape:connector-curvature="0" /></g><text
         transform="matrix(1,0,0,-1,94.6163,17.716167)"
         style="font-variant:normal;font-weight:normal;font-size:9.66727924px;font-family:'Times New Roman';-inkscape-font-specification:TimesNewRomanPSMT;writing-mode:lr-tb;fill:#000000;fill-opacity:1;fill-rule:nonzero;stroke:none"
         id="text4607"><tspan
           x="0"
           y="0"
           id="tspan4605">1</tspan></text>
<text
         transform="matrix(1,0,0,-0.93209525,120.80929,17.692108)"
         style="font-variant:normal;font-weight:normal;font-size:10.89336205px;font-family:'Times New Roman';-inkscape-font-specification:TimesNewRomanPSMT;writing-mode:lr-tb;fill:#000000;fill-opacity:1;fill-rule:nonzero;stroke:none"
         id="text4611"><tspan
           x="0"
           y="0"
           id="tspan4609">0</tspan></text>
<text
         transform="matrix(1,0,0,-1,193.726,82.408636)"
         style="font-variant:normal;font-weight:normal;font-size:12.80392361px;font-family:'Times New Roman';-inkscape-font-specification:TimesNewRomanPSMT;writing-mode:lr-tb;fill:#000000;fill-opacity:1;fill-rule:nonzero;stroke:none"
         id="text4615"><tspan
           x="0"
           y="0"
           id="tspan4613">a</tspan></text>
<g
         id="g4617"
         transform="matrix(1,0,0,-1,0,91.740944)"><path
           d="m 192.781,12.277 c -1.672,3.911 -3.863,9.02 -5.551,12.953"
           style="fill:none;stroke:#000000;stroke-width:0.35524401;stroke-linecap:butt;stroke-linejoin:miter;stroke-miterlimit:4;stroke-dasharray:none;stroke-opacity:1"
           id="path4619"
           inkscape:connector-curvature="0" /></g><g
         id="g4621"
         transform="rotate(180,0,45.870472)"><path
           d="m -187.848,76.367 h -19.184 v 12.789 h 19.184 z"
           style="fill:none;stroke:#000000;stroke-width:0.35524401;stroke-linecap:butt;stroke-linejoin:miter;stroke-miterlimit:4;stroke-dasharray:none;stroke-opacity:1"
           id="path4623"
           inkscape:connector-curvature="0" /></g><g
         id="g4625"
         transform="rotate(180,0,45.870472)"><path
           d="m -161.914,76.367 h -19.184 v 12.789 h 19.184 z"
           style="fill:none;stroke:#000000;stroke-width:0.35524401;stroke-linecap:butt;stroke-linejoin:miter;stroke-miterlimit:4;stroke-dasharray:none;stroke-opacity:1"
           id="path4627"
           inkscape:connector-curvature="0" /></g><text
         transform="matrix(1,0,0,-1,182.01569,56.646338)"
         style="font-variant:normal;font-weight:normal;font-size:10.16352367px;font-family:'Times New Roman';-inkscape-font-specification:TimesNewRomanPSMT;writing-mode:lr-tb;fill:#000000;fill-opacity:1;fill-rule:nonzero;stroke:none"
         id="text4631"><tspan
           x="0"
           y="0"
           id="tspan4629">b</tspan></text>
<g
         id="g4633"
         transform="rotate(180,0,45.870472)"><path
           d="m -173.105,31.609 c 0,3.532 -5.168,6.395 -11.543,6.395 -6.379,0 -11.547,-2.863 -11.547,-6.395 0,-3.531 5.168,-6.394 11.547,-6.394 6.375,0 11.543,2.863 11.543,6.394 z"
           style="fill:none;stroke:#000000;stroke-width:0.35524401;stroke-linecap:butt;stroke-linejoin:miter;stroke-miterlimit:4;stroke-dasharray:none;stroke-opacity:1"
           id="path4635"
           inkscape:connector-curvature="0" /></g><text
         transform="matrix(1,0,0,-0.93209516,194.31146,5.52999)"
         style="font-variant:normal;font-weight:normal;font-size:10.89336205px;font-family:'Times New Roman';-inkscape-font-specification:TimesNewRomanPSMT;writing-mode:lr-tb;fill:#000000;fill-opacity:1;fill-rule:nonzero;stroke:none"
         id="text4639"><tspan
           x="0"
           y="0"
           id="tspan4637">0</tspan></text>
<g
         id="g4641"
         transform="matrix(1,0,0,-1,0,91.740944)"><path
           d="m 185.766,38.066 c 1.211,6.403 3.293,16.727 5.632,25.516 1.149,4.309 2.692,9.098 3.926,12.766"
           style="fill:none;stroke:#000000;stroke-width:0.35524401;stroke-linecap:butt;stroke-linejoin:miter;stroke-miterlimit:4;stroke-dasharray:1.776222, 0.710489;stroke-dashoffset:0;stroke-opacity:1"
           id="path4643"
           inkscape:connector-curvature="0" /></g><text
         transform="matrix(1,0,0,-1,168.92715,5.570972)"
         style="font-variant:normal;font-weight:normal;font-size:9.66727924px;font-family:'Times New Roman';-inkscape-font-specification:TimesNewRomanPSMT;writing-mode:lr-tb;fill:#000000;fill-opacity:1;fill-rule:nonzero;stroke:none"
         id="text4647"><tspan
           x="0"
           y="0"
           id="tspan4645">1</tspan></text>
<g
         id="g4649"
         transform="matrix(1,0,0,-1,0,91.740944)"><path
           d="m 183.09,37.949 c -2.516,9.656 -7.445,28.574 -9.985,38.324"
           style="fill:none;stroke:#000000;stroke-width:0.35524401;stroke-linecap:butt;stroke-linejoin:miter;stroke-miterlimit:4;stroke-dasharray:none;stroke-opacity:1"
           id="path4651"
           inkscape:connector-curvature="0" /></g><g
         id="g4653"
         transform="matrix(1,0,0,-1,0,91.740944)"><path
           d="m 204.246,11.43 c 3.559,2.48 8.215,5.73 11.801,8.23"
           style="fill:none;stroke:#000000;stroke-width:0.362784;stroke-linecap:butt;stroke-linejoin:miter;stroke-miterlimit:4;stroke-dasharray:1.813921, 0.725568;stroke-dashoffset:0;stroke-opacity:1"
           id="path4655"
           inkscape:connector-curvature="0" /></g><g
         id="g4657"
         transform="matrix(-0.403573,0,0,-1,0,91.740944)"><path
           d="m -535.462,19.742 h -103.635 v 69.086 h 103.635 z"
           style="fill:none;stroke:#000000;stroke-width:0.36638999;stroke-linecap:butt;stroke-linejoin:miter;stroke-miterlimit:4;stroke-dasharray:none;stroke-opacity:1"
           id="path4659"
           inkscape:connector-curvature="0" /></g><text
         transform="matrix(1,0,0,-1,234.99148,65.682011)"
         style="font-variant:normal;font-weight:normal;font-size:6.18610096px;font-family:'Times New Roman';-inkscape-font-specification:TimesNewRomanPSMT;writing-mode:lr-tb;fill:#000000;fill-opacity:1;fill-rule:nonzero;stroke:none"
         id="text4663"><tspan
           x="0"
           y="0"
           id="tspan4661">c</tspan></text>
<text
         transform="matrix(1,0,0,-1,240.22277,52.587119)"
         style="font-variant:normal;font-weight:normal;font-size:4.90356398px;font-family:'Times New Roman';-inkscape-font-specification:TimesNewRomanPSMT;writing-mode:lr-tb;fill:#000000;fill-opacity:1;fill-rule:nonzero;stroke:none"
         id="text4667"><tspan
           x="0"
           y="0"
           id="tspan4665">d</tspan></text>
<g
         id="g4669"
         transform="rotate(180,0,45.870472)"><path
           d="m -230.66,24.813 c 0,1.746 -2.555,3.16 -5.707,3.16 -3.149,0 -5.703,-1.414 -5.703,-3.16 0,-1.743 2.554,-3.161 5.703,-3.161 3.152,0 5.707,1.418 5.707,3.161 z"
           style="fill:none;stroke:#000000;stroke-width:0.17553701;stroke-linecap:butt;stroke-linejoin:miter;stroke-miterlimit:4;stroke-dasharray:none;stroke-opacity:1"
           id="path4671"
           inkscape:connector-curvature="0" /></g><g
         id="g4673"
         transform="rotate(180,0,45.870472)"><path
           d="m -235.93,37.453 c 0,1.746 -2.55,3.16 -5.703,3.16 -3.148,0 -5.703,-1.414 -5.703,-3.16 0,-1.746 2.555,-3.16 5.703,-3.16 3.153,0 5.703,1.414 5.703,3.16 z"
           style="fill:none;stroke:#000000;stroke-width:0.17553701;stroke-linecap:butt;stroke-linejoin:miter;stroke-miterlimit:4;stroke-dasharray:none;stroke-opacity:1"
           id="path4675"
           inkscape:connector-curvature="0" /></g><g
         id="g4677"
         transform="matrix(1,0,0,-1,0,91.740944)"><path
           d="m 237.613,27.902 c 0.828,1.93 1.91,4.453 2.742,6.399"
           style="fill:none;stroke:#000000;stroke-width:0.17553701;stroke-linecap:butt;stroke-linejoin:miter;stroke-miterlimit:4;stroke-dasharray:0.877683, 0.351073;stroke-dashoffset:0;stroke-opacity:1"
           id="path4679"
           inkscape:connector-curvature="0" /></g><g
         id="g4681"
         transform="rotate(180,0,45.870472)"><path
           d="m -226.359,46.93 h -9.48 v 6.32 h 9.48 z"
           style="fill:none;stroke:#000000;stroke-width:0.17553701;stroke-linecap:butt;stroke-linejoin:miter;stroke-miterlimit:4;stroke-dasharray:none;stroke-opacity:1"
           id="path4683"
           inkscape:connector-curvature="0" /></g><g
         id="g4685"
         transform="matrix(1,0,0,-1,0,91.740944)"><path
           d="m 235.73,27.996 c -1.011,4.789 -2.98,14.106 -3.992,18.902"
           style="fill:none;stroke:#000000;stroke-width:0.17553701;stroke-linecap:butt;stroke-linejoin:miter;stroke-miterlimit:4;stroke-dasharray:none;stroke-opacity:1"
           id="path4687"
           inkscape:connector-curvature="0" /></g><g
         id="g4689"
         transform="rotate(180,0,45.870472)"><path
           d="m -239,46.93 h -9.477 v 6.32 H -239 Z"
           style="fill:none;stroke:#000000;stroke-width:0.17553701;stroke-linecap:butt;stroke-linejoin:miter;stroke-miterlimit:4;stroke-dasharray:none;stroke-opacity:1"
           id="path4691"
           inkscape:connector-curvature="0" /></g><g
         id="g4693"
         transform="matrix(1,0,0,-1,0,91.740944)"><path
           d="m 242.141,40.602 c 0.328,1.906 0.75,4.367 1.078,6.281"
           style="fill:none;stroke:#000000;stroke-width:0.17553701;stroke-linecap:butt;stroke-linejoin:miter;stroke-miterlimit:4;stroke-dasharray:0.877683, 0.351073;stroke-dashoffset:0;stroke-opacity:1"
           id="path4695"
           inkscape:connector-curvature="0" /></g><g
         id="g4697"
         transform="matrix(1,0,0,-1,0,91.740944)"><path
           d="m 239.293,40.355 c -1.648,1.922 -3.855,4.5 -5.566,6.497"
           style="fill:none;stroke:#000000;stroke-width:0.17553701;stroke-linecap:butt;stroke-linejoin:miter;stroke-miterlimit:4;stroke-dasharray:none;stroke-opacity:1"
           id="path4699"
           inkscape:connector-curvature="0" /></g><text
         transform="matrix(1,0,0,-1,229.79991,40.194506)"
         style="font-variant:normal;font-weight:normal;font-size:4.67760515px;font-family:'Times New Roman';-inkscape-font-specification:TimesNewRomanPSMT;writing-mode:lr-tb;fill:#000000;fill-opacity:1;fill-rule:nonzero;stroke:none"
         id="text4703"><tspan
           x="0"
           y="0"
           id="tspan4701">1</tspan></text>
<text
         transform="matrix(1,0,0,-0.9320951,242.47363,40.182867)"
         style="font-variant:normal;font-weight:normal;font-size:5.27085686px;font-family:'Times New Roman';-inkscape-font-specification:TimesNewRomanPSMT;writing-mode:lr-tb;fill:#000000;fill-opacity:1;fill-rule:nonzero;stroke:none"
         id="text4707"><tspan
           x="0"
           y="0"
           id="tspan4705">0</tspan></text>
<g
         id="g4709"
         transform="rotate(180,0,45.870472)"><path
           d="m -239.168,79.68 h -10.355 v 6.902 h 10.355 z"
           style="fill:none;stroke:#000000;stroke-width:0.191792;stroke-linecap:butt;stroke-linejoin:miter;stroke-miterlimit:4;stroke-dasharray:none;stroke-opacity:1"
           id="path4711"
           inkscape:connector-curvature="0" /></g><g
         id="g4713"
         transform="rotate(180,0,45.870472)"><path
           d="m -225.168,79.68 h -10.355 v 6.902 h 10.355 z"
           style="fill:none;stroke:#000000;stroke-width:0.191792;stroke-linecap:butt;stroke-linejoin:miter;stroke-miterlimit:4;stroke-dasharray:none;stroke-opacity:1"
           id="path4715"
           inkscape:connector-curvature="0" /></g><g
         id="g4717"
         transform="rotate(180,0,45.870472)"><path
           d="m -231.691,68.809 c 0,1.906 -2.789,3.449 -6.231,3.449 -3.441,0 -6.23,-1.543 -6.23,-3.449 0,-1.907 2.789,-3.454 6.23,-3.454 3.442,0 6.231,1.547 6.231,3.454 z"
           style="fill:none;stroke:#000000;stroke-width:0.191792;stroke-linecap:butt;stroke-linejoin:miter;stroke-miterlimit:4;stroke-dasharray:none;stroke-opacity:1"
           id="path4719"
           inkscape:connector-curvature="0" /></g><text
         transform="matrix(1,0,0,-1,236.39506,21.553513)"
         style="font-variant:normal;font-weight:normal;font-size:6.40754414px;font-family:'Times New Roman';-inkscape-font-specification:TimesNewRomanPSMT;writing-mode:lr-tb;fill:#000000;fill-opacity:1;fill-rule:nonzero;stroke:none"
         id="text4723"><tspan
           x="0"
           y="0"
           id="tspan4721">c</tspan></text>
<text
         transform="matrix(1,0,0,-0.9320952,242.65767,6.748029)"
         style="font-variant:normal;font-weight:normal;font-size:5.88120413px;font-family:'Times New Roman';-inkscape-font-specification:TimesNewRomanPSMT;writing-mode:lr-tb;fill:#000000;fill-opacity:1;fill-rule:nonzero;stroke:none"
         id="text4727"><tspan
           x="0"
           y="0"
           id="tspan4725">0</tspan></text>
<text
         transform="matrix(1,0,0,-1,228.95296,6.770145)"
         style="font-variant:normal;font-weight:normal;font-size:5.21925497px;font-family:'Times New Roman';-inkscape-font-specification:TimesNewRomanPSMT;writing-mode:lr-tb;fill:#000000;fill-opacity:1;fill-rule:nonzero;stroke:none"
         id="text4731"><tspan
           x="0"
           y="0"
           id="tspan4729">1</tspan></text>
<g
         id="g4733"
         transform="matrix(1,0,0,-1,0,91.740944)"><path
           d="m 240.063,72.199 c 1.386,2.219 3.179,5.09 4.57,7.321"
           style="fill:none;stroke:#000000;stroke-width:0.22813401;stroke-linecap:butt;stroke-linejoin:miter;stroke-miterlimit:4;stroke-dasharray:1.140671, 0.456268;stroke-dashoffset:0;stroke-opacity:1"
           id="path4735"
           inkscape:connector-curvature="0" /></g><g
         id="g4737"
         transform="matrix(1,0,0,-1,0,91.740944)"><path
           d="m 235.273,71.895 c -1.543,2.222 -3.726,5.367 -5.375,7.746"
           style="fill:none;stroke:#000000;stroke-width:0.140918;stroke-linecap:butt;stroke-linejoin:miter;stroke-miterlimit:4;stroke-dasharray:none;stroke-opacity:1"
           id="path4739"
           inkscape:connector-curvature="0" /></g><text
         transform="matrix(1,0,0,-1,69.39603,43.246417)"
         style="font-variant:normal;font-weight:normal;font-size:21.69181442px;font-family:'French Script MT';-inkscape-font-specification:FrenchScriptMT;writing-mode:lr-tb;fill:#000000;fill-opacity:1;fill-rule:nonzero;stroke:none"
         id="text4743"><tspan
           x="0"
           y="0"
           id="tspan4741">+</tspan></text>
<text
         transform="matrix(1,0,0,-1,235.1303,30.879809)"
         style="font-variant:normal;font-weight:normal;font-size:6.79895115px;font-family:Verdana;-inkscape-font-specification:Verdana;writing-mode:lr-tb;fill:#000000;fill-opacity:1;fill-rule:nonzero;stroke:none"
         id="text4747"><tspan
           x="0"
           y="0"
           id="tspan4745">+</tspan></text>
<g
         id="g4749"
         transform="matrix(1,0,0,-1,0,91.740944)"><path
           d="m 141.18,43.781 c 26.988,0 26.988,0 26.988,0"
           style="fill:none;stroke:#000000;stroke-width:0.651326;stroke-linecap:butt;stroke-linejoin:miter;stroke-miterlimit:4;stroke-dasharray:none;stroke-opacity:1"
           id="path4751"
           inkscape:connector-curvature="0" /></g><g
         id="g4753"
         transform="matrix(-1,0,0,1,0,91.740944)"><path
           d="m -161.203,-40.891 -7.828,-2.879 7.828,-2.878 c -1.25,1.699 -1.246,4.027 0,5.757 z"
           style="fill:#000000;fill-opacity:1;fill-rule:evenodd;stroke:#000000;stroke-width:0.44778699;stroke-linecap:butt;stroke-linejoin:round;stroke-miterlimit:4;stroke-dasharray:none;stroke-opacity:1"
           id="path4755"
           inkscape:connector-curvature="0" /></g><text
         transform="matrix(1,0,0,-1,14.041069,84.532114)"
         style="font-variant:normal;font-weight:normal;font-size:10.16352367px;font-family:'Times New Roman';-inkscape-font-specification:TimesNewRomanPSMT;writing-mode:lr-tb;fill:#000000;fill-opacity:1;fill-rule:nonzero;stroke:none"
         id="text4761"><tspan
           x="0"
           y="0"
           id="tspan4757">f</tspan><tspan
           x="75.494759"
           y="5.1267052"
           id="tspan4759">g</tspan></text>
</g></g></svg>