<?xml version="1.0" encoding="UTF-8" standalone="no"?>
<!-- Created with Inkscape (http://www.inkscape.org/) -->

<svg
   xmlns:osb="http://www.openswatchbook.org/uri/2009/osb"
   xmlns:dc="http://purl.org/dc/elements/1.1/"
   xmlns:cc="http://creativecommons.org/ns#"
   xmlns:rdf="http://www.w3.org/1999/02/22-rdf-syntax-ns#"
   xmlns:svg="http://www.w3.org/2000/svg"
   xmlns="http://www.w3.org/2000/svg"
   xmlns:sodipodi="http://sodipodi.sourceforge.net/DTD/sodipodi-0.dtd"
   xmlns:inkscape="http://www.inkscape.org/namespaces/inkscape"
   width="210mm"
   height="297mm"
   viewBox="0 0 210 297"
   version="1.1"
   id="svg8"
   inkscape:version="0.92.0 r15299"
   sodipodi:docname="vjd.svg">
  <sodipodi:namedview
     id="base"
     pagecolor="#ffffff"
     bordercolor="#666666"
     borderopacity="1.0"
     inkscape:pageopacity="0.0"
     inkscape:pageshadow="2"
     inkscape:zoom="0.98994949"
     inkscape:cx="656.43497"
     inkscape:cy="703.81185"
     inkscape:document-units="mm"
     inkscape:current-layer="layer1"
     showgrid="false"
     inkscape:window-width="1920"
     inkscape:window-height="1001"
     inkscape:window-x="-9"
     inkscape:window-y="-9"
     inkscape:window-maximized="1" />
  <defs
     id="defs2">
    <linearGradient
       id="linearGradient5949"
       osb:paint="solid">
      <stop
         style="stop-color:#000000;stop-opacity:1;"
         offset="0"
         id="stop5947" />
    </linearGradient>
  </defs>
  <metadata
     id="metadata5">
    <rdf:RDF>
      <cc:Work
         rdf:about="">
        <dc:format>image/svg+xml</dc:format>
        <dc:type
           rdf:resource="http://purl.org/dc/dcmitype/StillImage" />
        <dc:title />
      </cc:Work>
    </rdf:RDF>
  </metadata>
  <g
     inkscape:label="Layer 1"
     inkscape:groupmode="layer"
     id="layer1">
    <ellipse
       style="fill:#000000;fill-opacity:0;stroke:#000000;stroke-width:0.47799999;stroke-miterlimit:4;stroke-dasharray:none;stroke-opacity:0.99502486"
       id="path5987-1"
       cx="137.23174"
       cy="134.33792"
       rx="52.904755"
       ry="37.977089" />
    <ellipse
       style="fill:#000000;fill-opacity:0;stroke:#000000;stroke-width:0.49999994;stroke-miterlimit:4;stroke-dasharray:none;stroke-opacity:0.99502486"
       id="path5987-5"
       cx="118.20892"
       cy="134.96304"
       rx="17.578083"
       ry="23.081051" />
    <g
       word-spacing="normal"
       letter-spacing="normal"
       font-size-adjust="none"
       font-stretch="normal"
       font-weight="normal"
       font-variant="normal"
       font-style="normal"
       stroke-miterlimit="10.433"
       xml:space="preserve"
       transform="matrix(0.18383765,0,0,-0.18384452,79.741712,173.94372)"
       id="content"
       style="font-style:normal;font-variant:normal;font-weight:normal;font-stretch:normal;letter-spacing:normal;word-spacing:normal;text-anchor:start;fill:none;fill-opacity:1;fill-rule:evenodd;stroke:#000000;stroke-width:2.75915456;stroke-linecap:butt;stroke-linejoin:miter;stroke-miterlimit:10.43299961;stroke-dasharray:none;stroke-dashoffset:0;stroke-opacity:1"><path
         id="path4608"
         d="m 486.8,434.54 0.23,0.36 0.23,0.33 0.22,0.31 0.22,0.29 0.22,0.28 0.22,0.25 0.22,0.24 0.22,0.22 0.21,0.2 0.21,0.19 0.21,0.17 0.2,0.16 0.21,0.14 0.2,0.13 0.21,0.12 0.19,0.11 0.2,0.09 0.2,0.09 0.19,0.07 0.2,0.07 0.19,0.06 0.19,0.05 0.18,0.04 0.19,0.03 0.18,0.03 0.19,0.03 0.36,0.04 0.35,0.02 0.35,0.02 c 0.6,0.05 0.64,0.89 0.64,0.96 0,0.39 -0.25,0.59 -0.64,0.59 -1.3,0 -2.75,-0.16 -4.09,-0.16 -1.64,0 -3.35,0.16 -4.94,0.16 -0.3,0 -0.94,0 -0.94,-0.95 0,-0.55 0.46,-0.6 0.8,-0.6 1.34,-0.09 2.3,-0.59 2.3,-1.64 0,-0.75 -0.75,-1.84 -0.75,-1.89 l -15.3,-24.31 -3.39,26.34 c 0,0.85 1.14,1.5 3.44,1.5 0.7,0 1.25,0 1.25,1 0,0.44 -0.41,0.55 -0.71,0.55 -1.98,0 -4.14,-0.16 -6.17,-0.16 -0.9,0 -1.84,0.05 -2.75,0.05 -0.89,0 -1.84,0.11 -2.69,0.11 -0.34,0 -0.93,0 -0.93,-0.95 0,-0.6 0.43,-0.6 1.23,-0.6 2.8,0 2.84,-0.45 3,-1.68 l 3.92,-30.75 c 0.16,-1 0.36,-1.14 1,-1.14 0.8,0 1,0.25 1.41,0.89 z"
         inkscape:connector-curvature="0"
         style="fill:#000000;stroke-width:0" /><path
         id="path4610"
         d="m 513.93,422.81 v 0.02 0.01 0.02 0.02 0.02 l -0.01,0.01 v 0.02 l -0.01,0.02 v 0.02 l -0.01,0.02 -0.01,0.02 -0.01,0.02 -0.01,0.02 -0.01,0.01 -0.01,0.02 -0.01,0.02 -0.02,0.02 -0.01,0.01 -0.02,0.02 -0.02,0.01 -0.01,0.02 -0.02,0.01 -0.02,0.01 -0.02,0.02 -0.03,0.01 h -0.02 l -0.03,0.01 -0.02,0.01 h -0.02 -0.01 l -0.01,0.01 h -0.02 -0.01 -0.02 -0.01 -0.02 c -0.25,0 -0.31,-0.08 -0.63,-0.42 l -2.54,-2.69 c -0.31,0.42 -2.27,3.11 -6.55,3.11 -8.47,0 -16.76,-7.5 -16.76,-15.37 0,-5.68 4.46,-9.83 10.7,-9.83 1.87,0 5.22,0.39 8.81,3.42 2.75,2.33 3.52,5.36 3.52,5.64 0,0.45 -0.42,0.45 -0.6,0.45 -0.45,0 -0.51,-0.17 -0.62,-0.54 -1.42,-4.78 -6.31,-7.71 -10.52,-7.71 -3.7,0 -7.81,1.99 -7.81,7.49 0,1.01 0.25,6.51 4.25,10.9 2.41,2.69 6.06,4.29 9.38,4.29 4.04,0 6.4,-2.93 6.4,-6.83 0,-0.97 -0.09,-1.22 -0.09,-1.42 0,-0.46 0.45,-0.46 0.62,-0.46 0.57,0 0.57,0.11 0.74,0.77 z"
         inkscape:connector-curvature="0"
         style="fill:#000000;stroke-width:0" /><path
         id="path4612"
         d="m 534.65,394.25 -0.01,0.02 v 0.03 0.01 0.02 0.01 l -0.01,0.02 v 0.01 l -0.01,0.02 -0.01,0.02 -0.01,0.02 -0.01,0.02 -0.02,0.03 -0.01,0.02 -0.02,0.03 -0.02,0.03 -0.03,0.03 -0.02,0.03 -0.03,0.04 -0.02,0.02 -0.01,0.02 -0.02,0.02 -0.02,0.02 -0.02,0.02 -0.02,0.03 -0.02,0.02 -0.02,0.02 -0.02,0.03 -0.03,0.02 -0.02,0.03 -0.03,0.03 -0.02,0.03 -0.03,0.03 -0.03,0.03 -0.03,0.03 -0.03,0.03 -0.03,0.03 -0.04,0.04 -0.03,0.03 -0.04,0.04 -0.03,0.03 -0.04,0.04 -0.04,0.04 c -6.22,6.28 -7.81,15.69 -7.81,23.31 0,8.67 1.89,17.35 8.01,23.56 0.65,0.61 0.65,0.71 0.65,0.86 0,0.35 -0.19,0.49 -0.49,0.49 -0.5,0 -4.98,-3.38 -7.92,-9.7 -2.55,-5.49 -3.14,-11.02 -3.14,-15.21 0,-3.89 0.55,-9.9 3.28,-15.54 2.98,-6.13 7.28,-9.36 7.78,-9.36 0.3,0 0.49,0.14 0.49,0.5 z"
         inkscape:connector-curvature="0"
         style="fill:#000000;stroke-width:0" /><path
         id="path4614"
         d="m 564.43,436.59 0.04,0.15 0.03,0.14 0.04,0.14 0.03,0.13 0.04,0.12 0.03,0.12 0.04,0.11 0.04,0.11 0.04,0.1 0.05,0.09 0.05,0.09 0.05,0.08 0.06,0.08 0.06,0.07 0.07,0.07 0.07,0.06 0.09,0.06 0.08,0.05 0.1,0.05 0.11,0.04 0.11,0.04 0.12,0.04 0.14,0.03 0.07,0.01 0.07,0.02 0.08,0.01 0.08,0.01 0.08,0.01 0.09,0.01 0.08,0.01 0.09,0.01 0.1,0.01 h 0.1 l 0.1,0.01 h 0.1 l 0.11,0.01 h 0.11 0.12 0.12 0.12 0.12 c 0.8,0 1.35,0 1.35,0.96 0,0.43 -0.3,0.59 -0.69,0.59 -1.25,0 -4.28,-0.16 -5.53,-0.16 -1.64,0 -5.69,0.16 -7.33,0.16 -0.45,0 -1.05,0 -1.05,-1 0,-0.55 0.41,-0.55 1.71,-0.55 1.14,0 1.64,0 2.87,-0.09 1.21,-0.16 1.55,-0.31 1.55,-1 0,-0.3 -0.09,-0.66 -0.19,-1.05 l -5.73,-22.87 c -1.21,-4.83 -4.58,-7.47 -7.17,-7.47 -1.3,0 -3.94,0.5 -4.74,3.09 0.14,-0.04 0.5,-0.04 0.59,-0.04 1.94,0 3.24,1.68 3.24,3.18 0,1.6 -1.34,2.08 -2.19,2.08 -0.89,0 -3.34,-0.59 -3.34,-3.98 0,-3.08 2.64,-5.42 6.58,-5.42 4.59,0 9.76,3.28 11.01,8.21 z"
         inkscape:connector-curvature="0"
         style="fill:#000000;stroke-width:0" /><path
         id="path4616"
         d="m 571.66,401.48 -0.03,-0.11 -0.02,-0.1 -0.03,-0.1 -0.02,-0.09 -0.03,-0.09 -0.02,-0.09 -0.03,-0.08 -0.03,-0.07 -0.04,-0.07 -0.03,-0.07 -0.05,-0.06 -0.04,-0.06 -0.05,-0.05 -0.06,-0.05 -0.06,-0.05 -0.07,-0.04 -0.08,-0.04 -0.09,-0.03 -0.09,-0.04 -0.1,-0.03 -0.06,-0.01 -0.05,-0.01 -0.06,-0.02 -0.06,-0.01 -0.07,-0.01 -0.07,-0.01 -0.07,-0.01 -0.07,-0.01 h -0.07 l -0.08,-0.01 -0.08,-0.01 h -0.09 l -0.08,-0.01 -0.09,-0.01 h -0.1 -0.09 l -0.1,-0.01 h -0.11 -0.11 -0.11 l -0.11,-0.01 h -0.12 -0.12 -0.13 c -0.62,0 -1.04,0 -1.04,-0.76 0,-0.49 0.42,-0.49 1.04,-0.49 h 12.44 l -0.62,1.25 h -4.74 c -1.08,0 -1.11,0.05 -1.11,0.36 0,0.03 0,0.2 0.13,0.72 l 4.78,19.03 c 0.28,1.08 0.31,1.19 1.78,1.19 h 4.45 c 3.91,0 7.19,-1.95 7.19,-6.69 0,-0.81 -0.36,-6.83 -3.84,-10.81 -1.36,-1.56 -4.35,-3.8 -8.64,-3.8 l 0.62,-1.25 c 7.74,0 15.16,7.11 15.16,14.7 0,5.1 -3.52,9.1 -9.19,9.1 h -12.69 c -0.7,0 -1.11,0 -1.11,-0.77 0,-0.48 0.38,-0.48 1.14,-0.48 0.57,0 0.71,0 1.33,-0.08 0.71,-0.06 0.77,-0.14 0.77,-0.48 0,-0.07 0,-0.24 -0.14,-0.77 z"
         inkscape:connector-curvature="0"
         style="fill:#000000;stroke-width:0" /><path
         id="path4618"
         d="m 615.59,418.65 v 0.37 l -0.01,0.39 -0.01,0.39 -0.01,0.41 -0.04,0.84 -0.06,0.88 -0.08,0.92 -0.11,0.95 -0.13,0.97 -0.17,1.01 -0.19,1.02 -0.23,1.03 -0.27,1.05 -0.3,1.06 -0.35,1.07 -0.4,1.07 -0.21,0.53 -0.22,0.53 -0.24,0.53 -0.25,0.53 c -2.99,6.12 -7.27,9.36 -7.77,9.36 -0.29,0 -0.5,-0.19 -0.5,-0.49 0,-0.15 0,-0.25 0.94,-1.15 4.89,-4.92 7.74,-12.85 7.74,-23.27 0,-8.51 -1.85,-17.28 -8.04,-23.56 -0.64,-0.59 -0.64,-0.7 -0.64,-0.84 0,-0.3 0.21,-0.5 0.5,-0.5 0.5,0 4.97,3.39 7.93,9.71 2.53,5.47 3.12,11 3.12,15.19 z"
         inkscape:connector-curvature="0"
         style="fill:#000000;stroke-width:0" /></g>    <ellipse
       cy="122.78646"
       cx="110.8998"
       id="path4642"
       style="fill:#000000;fill-opacity:0.98507463;stroke:#000000;stroke-width:0.26499999;stroke-miterlimit:4;stroke-dasharray:none;stroke-opacity:0.99502486"
       rx="1.9225115"
       ry="1.9225831" />
    <ellipse
       cy="131.8299"
       cx="123.07593"
       id="path4642-2"
       style="fill:#000000;fill-opacity:0.98507463;stroke:#000000;stroke-width:0.26499999;stroke-miterlimit:4;stroke-dasharray:none;stroke-opacity:0.99502486"
       rx="1.9225115"
       ry="1.9225831" />
    <ellipse
       cy="147.8873"
       cx="116.41824"
       id="path4642-3"
       style="fill:#000000;fill-opacity:0.98507463;stroke:#000000;stroke-width:0.26499999;stroke-miterlimit:4;stroke-dasharray:none;stroke-opacity:0.99502486"
       rx="1.9225115"
       ry="1.9225831" />
    <g
       style="font-style:normal;font-variant:normal;font-weight:normal;font-stretch:normal;letter-spacing:normal;word-spacing:normal;text-anchor:start;fill:none;fill-opacity:1;fill-rule:evenodd;stroke:#000000;stroke-width:2.37659764;stroke-linecap:butt;stroke-linejoin:miter;stroke-miterlimit:10.43299961;stroke-dasharray:none;stroke-dashoffset:0;stroke-opacity:1"
       id="g4689"
       transform="matrix(0.20889967,0,0,-0.20890747,35.091991,202.90233)"
       xml:space="preserve"
       stroke-miterlimit="10.433"
       font-style="normal"
       font-variant="normal"
       font-weight="normal"
       font-stretch="normal"
       font-size-adjust="none"
       letter-spacing="normal"
       word-spacing="normal"><path
         style="fill:#000000;stroke-width:0"
         inkscape:connector-curvature="0"
         d="m 501.21,434.45 0.23,0.4 0.24,0.4 0.24,0.38 0.24,0.37 0.13,0.18 0.13,0.17 0.14,0.17 0.13,0.16 0.14,0.16 0.15,0.16 0.15,0.15 0.16,0.14 0.16,0.14 0.17,0.13 0.17,0.13 0.18,0.12 0.19,0.11 0.19,0.11 0.2,0.1 0.21,0.09 0.22,0.09 0.23,0.08 0.24,0.07 0.25,0.06 0.25,0.05 0.27,0.05 0.28,0.04 0.29,0.02 c 0.45,0.05 0.95,0.05 0.95,1 0,0.19 -0.2,0.55 -0.61,0.55 -1.19,0 -2.58,-0.16 -3.83,-0.16 -1.7,0 -3.55,0.16 -5.19,0.16 -0.29,0 -0.93,0 -0.93,-0.95 0,-0.55 0.43,-0.6 0.73,-0.6 1.2,-0.04 2.95,-0.45 2.95,-1.93 0,-0.55 -0.25,-0.96 -0.65,-1.66 l -13.46,-23.45 -1.84,24.7 c -0.05,1 -0.14,2.3 3.48,2.34 0.86,0 1.36,0 1.36,1 0,0.5 -0.56,0.55 -0.75,0.55 -2,0 -4.09,-0.16 -6.07,-0.16 -1.16,0 -4.1,0.16 -5.24,0.16 -0.3,0 -0.95,0 -0.95,-1 0,-0.55 0.5,-0.55 1.2,-0.55 2.19,0 2.53,-0.29 2.64,-1.25 l 0.3,-3.82 -12.61,-21.97 -1.89,25.25 c 0,0.59 0,1.75 3.78,1.79 0.5,0 1.05,0 1.05,1 0,0.55 -0.6,0.55 -0.69,0.55 -2,0 -4.09,-0.16 -6.13,-0.16 -1.75,0 -3.54,0.16 -5.23,0.16 -0.25,0 -0.91,0 -0.91,-0.95 0,-0.6 0.46,-0.6 1.25,-0.6 2.5,0 2.55,-0.45 2.64,-1.84 l 2.25,-30.44 c 0.05,-0.9 0.1,-1.29 0.8,-1.29 0.6,0 0.74,0.29 1.19,1.04 l 14.66,25.41 1.84,-25.16 c 0.09,-1.04 0.19,-1.29 0.8,-1.29 0.64,0 0.93,0.5 1.18,0.93 z"
         id="path4683" /><path
         style="fill:#000000;stroke-width:0"
         inkscape:connector-curvature="0"
         d="m 513.85,420.54 v 0.05 0.06 l -0.01,0.05 -0.01,0.06 -0.01,0.05 -0.01,0.06 -0.02,0.05 -0.02,0.06 -0.02,0.06 -0.02,0.05 -0.03,0.06 -0.03,0.05 -0.03,0.06 -0.04,0.05 -0.04,0.05 -0.04,0.05 -0.04,0.05 -0.05,0.05 -0.05,0.04 -0.05,0.05 -0.06,0.04 -0.06,0.03 -0.06,0.04 -0.07,0.03 -0.06,0.03 -0.08,0.03 -0.07,0.02 -0.08,0.02 -0.08,0.01 -0.08,0.01 -0.09,0.01 h -0.09 c -0.94,0 -1.95,-0.91 -1.95,-1.92 0,-0.59 0.45,-1.33 1.4,-1.33 1,0 1.95,0.99 1.95,1.92 z"
         id="path4685" /><path
         style="fill:#000000;stroke-width:0"
         inkscape:connector-curvature="0"
         d="m 506.75,402.84 -0.06,-0.17 -0.05,-0.17 -0.03,-0.08 -0.02,-0.09 -0.03,-0.08 -0.02,-0.09 -0.02,-0.09 -0.02,-0.09 -0.02,-0.1 -0.02,-0.09 -0.01,-0.1 v -0.05 l -0.01,-0.05 v -0.06 -0.05 l -0.01,-0.05 v -0.06 c 0,-1.64 1.39,-2.95 3.3,-2.95 3.49,0 5.03,4.79 5.03,5.33 0,0.45 -0.45,0.45 -0.56,0.45 -0.48,0 -0.53,-0.2 -0.67,-0.59 -0.8,-2.79 -2.33,-4.22 -3.69,-4.22 -0.7,0 -0.88,0.45 -0.88,1.22 0,0.79 0.25,1.46 0.57,2.23 0.34,0.94 0.73,1.87 1.11,2.78 0.31,0.84 1.58,4.02 1.71,4.44 0.1,0.34 0.21,0.76 0.21,1.11 0,1.64 -1.39,2.95 -3.31,2.95 -3.46,0 -5.05,-4.73 -5.05,-5.33 0,-0.45 0.48,-0.45 0.59,-0.45 0.49,0 0.52,0.17 0.63,0.56 0.9,3 2.44,4.25 3.72,4.25 0.56,0 0.87,-0.28 0.87,-1.22 0,-0.79 -0.2,-1.32 -1.08,-3.48 z"
         id="path4687" /></g>    <rect
       style="fill:#000000;fill-opacity:0;stroke:#000000;stroke-width:0.5;stroke-miterlimit:4;stroke-dasharray:none;stroke-opacity:0.98823529"
       id="rect4502"
       width="193.90178"
       height="113.39286"
       x="6.4255953"
       y="84.95536" />
    <ellipse
       style="fill:#000000;fill-opacity:0;stroke:#000000;stroke-width:0.47799993;stroke-miterlimit:4;stroke-dasharray:none;stroke-opacity:0.99502486"
       id="path5987-1-5"
       cx="145.01929"
       cy="-46.888489"
       rx="40.111897"
       ry="28.780865"
       transform="rotate(90)" />
    <g
       style="stroke-width:1.36159885"
       transform="matrix(0.73443069,0,0,0.73443069,70.652575,136.75592)"
       id="g4998">
      <g
         style="font-style:normal;font-variant:normal;font-weight:normal;font-stretch:normal;letter-spacing:normal;word-spacing:normal;text-anchor:start;fill:none;fill-opacity:1;fill-rule:evenodd;stroke:#000000;stroke-width:1.36159885;stroke-linecap:butt;stroke-linejoin:miter;stroke-miterlimit:10.43299961;stroke-dasharray:none;stroke-dashoffset:0;stroke-opacity:1"
         id="g4996"
         transform="matrix(0.3,0,0,-0.3,-52.5,222.75)"
         xml:space="preserve"
         stroke-miterlimit="10.433"
         font-style="normal"
         font-variant="normal"
         font-weight="normal"
         font-stretch="normal"
         font-size-adjust="none"
         letter-spacing="normal"
         word-spacing="normal"><path
           style="fill:#000000;stroke-width:0"
           inkscape:connector-curvature="0"
           d="m 468.43,422.93 h 0.2 0.21 0.23 l 0.25,-0.01 0.25,-0.01 0.27,-0.02 0.27,-0.03 0.28,-0.03 0.29,-0.04 0.29,-0.05 0.3,-0.06 0.3,-0.07 0.3,-0.08 0.29,-0.1 0.3,-0.11 0.29,-0.13 0.29,-0.14 0.28,-0.16 0.28,-0.18 0.26,-0.2 0.26,-0.22 0.24,-0.24 0.23,-0.26 0.11,-0.14 0.1,-0.15 0.11,-0.15 0.09,-0.16 0.1,-0.16 0.09,-0.17 0.08,-0.18 0.08,-0.18 0.08,-0.2 0.07,-0.19 0.06,-0.21 0.06,-0.21 0.05,-0.22 0.05,-0.23 0.04,-0.23 0.04,-0.24 0.03,-0.25 0.02,-0.26 c 0.04,-0.59 0.09,-1.25 0.89,-1.25 0.86,0 0.86,0.7 0.86,1.6 l -1.75,4.39 c -0.75,0.93 -2.05,1.68 -2.64,1.93 0.95,0.46 1.93,1.25 2.64,2.1 V 422 l 1.75,-4.39 v 13.5 c 0,0.79 0,1.59 -0.86,1.59 -0.64,0 -0.85,-0.5 -0.89,-1.05 -0.3,-5.78 -3.78,-6.76 -7.42,-6.92 v 10.52 c 0,3.34 0.93,3.34 2.14,3.34 h 2.34 c 6.38,0 9.61,-3.44 9.91,-6.88 0.06,-0.4 0.11,-1.15 0.9,-1.15 0.85,0 0.85,0.8 0.85,1.64 v 6.48 c 0,1.55 -0.1,1.64 -1.64,1.64 l -0.11,-1.73 v -2.34 c -0.69,0.75 -1.55,1.64 -2.69,2.34 h 2.69 l 0.11,1.73 h -25.02 c -0.89,0 -1.69,0 -1.69,-0.89 0,-0.84 0.94,-0.84 1.35,-0.84 2.82,0 3.03,-0.41 3.03,-2.84 v -24.97 l 1.75,-0.1 v 25.16 c 0,0.59 0,1.84 -0.41,2.75 h 5.28 c -0.54,-1.16 -0.54,-2.8 -0.54,-3.25 v -24.5 c 0,-0.75 0,-1.95 0.5,-2.89 h -5.24 c 0.41,0.89 0.41,2.14 0.41,2.73 l -1.75,0.1 c 0,-2.35 -0.14,-2.83 -2.78,-2.83 -0.75,0 -1.6,0 -1.6,-0.86 0,-0.89 0.8,-0.89 1.69,-0.89 h 14.41 c 0.89,0 1.64,0 1.64,0.89 0,0.86 -0.85,0.86 -1.5,0.86 -3.83,0 -4.03,0.34 -4.03,2.98 z"
           id="path4974" /><path
           style="fill:#000000;stroke-width:0"
           inkscape:connector-curvature="0"
           d="m 493.17,428.39 -0.11,-0.18 -0.12,-0.17 -0.11,-0.16 -0.11,-0.16 -0.12,-0.15 -0.11,-0.14 -0.11,-0.14 -0.12,-0.14 -0.11,-0.13 -0.12,-0.12 -0.12,-0.12 -0.12,-0.12 -0.12,-0.1 -0.12,-0.11 -0.13,-0.1 -0.13,-0.09 -0.13,-0.09 -0.13,-0.08 -0.14,-0.08 -0.13,-0.07 -0.15,-0.07 -0.14,-0.06 -0.15,-0.06 -0.15,-0.05 -0.16,-0.05 -0.16,-0.04 -0.17,-0.04 -0.17,-0.03 -0.17,-0.03 -0.18,-0.03 -0.19,-0.02 -0.19,-0.01 c -0.34,-0.03 -0.8,-0.03 -0.8,-0.74 0,-0.37 0.32,-0.51 0.49,-0.51 0.91,0 2.06,0.14 3,0.14 1.11,0 2.55,-0.14 3.59,-0.14 0.17,0 0.69,0 0.69,0.76 0,0.46 -0.45,0.49 -0.58,0.49 -0.28,0.05 -1.54,0.11 -1.54,1.05 0,0.42 0.35,1.01 0.53,1.32 l 2.78,4.32 h 9.97 l -0.18,1.26 h -8.95 l 7.31,11.39 1.64,-11.39 0.18,-1.26 0.84,-5.78 c -0.14,-0.35 -0.36,-0.91 -2.41,-0.91 -0.42,0 -0.9,0 -0.9,-0.77 0,-0.14 0.09,-0.48 0.54,-0.48 1.02,0 3.49,0.14 4.5,0.14 0.63,0 1.43,-0.03 2.07,-0.03 0.62,-0.05 1.36,-0.11 1.98,-0.11 0.45,0 0.69,0.28 0.69,0.73 0,0.52 -0.41,0.52 -0.97,0.52 -2.02,0 -2.09,0.28 -2.2,1.12 l -3.07,21.5 c -0.1,0.72 -0.17,0.97 -0.82,0.97 -0.68,0 -0.88,-0.31 -1.19,-0.79 z"
           id="path4976" /><path
           style="fill:#000000;stroke-width:0"
           inkscape:connector-curvature="0"
           d="m 503.59,400.18 h -1.18 c -0.1,-0.76 -0.46,-2.82 -0.91,-3.17 -0.27,-0.2 -2.95,-0.2 -3.44,-0.2 h -6.42 c 3.66,3.23 4.88,4.2 6.97,5.84 2.58,2.06 4.98,4.22 4.98,7.53 0,4.22 -3.68,6.8 -8.15,6.8 -4.31,0 -7.25,-3.03 -7.25,-6.23 0,-1.79 1.5,-1.96 1.86,-1.96 0.83,0 1.84,0.6 1.84,1.85 0,0.62 -0.25,1.84 -2.06,1.84 1.08,2.47 3.45,3.23 5.09,3.23 3.49,0 5.3,-2.7 5.3,-5.53 0,-3.03 -2.16,-5.43 -3.28,-6.68 l -8.39,-8.3 c -0.36,-0.31 -0.36,-0.39 -0.36,-1.36 h 14.36 z"
           id="path4978" /><path
           style="fill:#000000;stroke-width:0"
           inkscape:connector-curvature="0"
           d="m 548.93,420.04 -9.95,9.92 c -0.61,0.6 -0.7,0.71 -1.11,0.71 -0.48,0 -0.98,-0.46 -0.98,-1 0,-0.36 0.09,-0.46 0.64,-1 l 9.97,-10.02 -9.97,-10.01 c -0.55,-0.55 -0.64,-0.64 -0.64,-1 0,-0.55 0.5,-0.99 0.98,-0.99 0.41,0 0.5,0.1 1.11,0.69 l 9.91,9.92 10.31,-10.31 c 0.11,-0.05 0.45,-0.3 0.75,-0.3 0.59,0 1,0.44 1,0.99 0,0.11 0,0.31 -0.16,0.56 -0.04,0.09 -7.97,7.92 -10.45,10.45 l 9.11,9.13 c 0.25,0.29 1,0.93 1.25,1.23 0.05,0.11 0.25,0.3 0.25,0.66 0,0.54 -0.41,1 -1,1 -0.39,0 -0.6,-0.21 -1.14,-0.75 z"
           id="path4980" /><path
           style="fill:#000000;stroke-width:0"
           inkscape:connector-curvature="0"
           d="m 592.27,422.93 h 0.2 0.21 0.23 l 0.25,-0.01 0.25,-0.01 0.27,-0.02 0.27,-0.03 0.28,-0.03 0.29,-0.04 0.29,-0.05 0.3,-0.06 0.3,-0.07 0.3,-0.08 0.29,-0.1 0.3,-0.11 0.29,-0.13 0.29,-0.14 0.28,-0.16 0.28,-0.18 0.26,-0.2 0.26,-0.22 0.24,-0.24 0.23,-0.26 0.11,-0.14 0.1,-0.15 0.11,-0.15 0.09,-0.16 0.1,-0.16 0.09,-0.17 0.08,-0.18 0.08,-0.18 0.08,-0.2 0.07,-0.19 0.06,-0.21 0.06,-0.21 0.05,-0.22 0.05,-0.23 0.04,-0.23 0.04,-0.24 0.03,-0.25 0.02,-0.26 c 0.04,-0.59 0.09,-1.25 0.89,-1.25 0.86,0 0.86,0.7 0.86,1.6 l -1.75,4.39 c -0.75,0.93 -2.05,1.68 -2.64,1.93 0.95,0.46 1.93,1.25 2.64,2.1 V 422 l 1.75,-4.39 v 13.5 c 0,0.79 0,1.59 -0.86,1.59 -0.64,0 -0.85,-0.5 -0.89,-1.05 -0.3,-5.78 -3.78,-6.76 -7.42,-6.92 v 10.52 c 0,3.34 0.93,3.34 2.14,3.34 h 2.34 c 6.38,0 9.61,-3.44 9.91,-6.88 0.06,-0.4 0.11,-1.15 0.9,-1.15 0.85,0 0.85,0.8 0.85,1.64 v 6.48 c 0,1.55 -0.1,1.64 -1.64,1.64 l -0.11,-1.73 v -2.34 c -0.69,0.75 -1.55,1.64 -2.69,2.34 h 2.69 l 0.11,1.73 h -25.02 c -0.89,0 -1.69,0 -1.69,-0.89 0,-0.84 0.94,-0.84 1.35,-0.84 2.82,0 3.03,-0.41 3.03,-2.84 v -24.97 l 1.75,-0.1 v 25.16 c 0,0.59 0,1.84 -0.41,2.75 h 5.28 c -0.54,-1.16 -0.54,-2.8 -0.54,-3.25 v -24.5 c 0,-0.75 0,-1.95 0.5,-2.89 h -5.24 c 0.41,0.89 0.41,2.14 0.41,2.73 l -1.75,0.1 c 0,-2.35 -0.14,-2.83 -2.78,-2.83 -0.75,0 -1.6,0 -1.6,-0.86 0,-0.89 0.8,-0.89 1.69,-0.89 h 14.41 c 0.89,0 1.64,0 1.64,0.89 0,0.86 -0.85,0.86 -1.5,0.86 -3.83,0 -4.03,0.34 -4.03,2.98 z"
           id="path4982" /><path
           style="fill:#000000;stroke-width:0"
           inkscape:connector-curvature="0"
           d="m 616.47,426.92 -0.03,-0.11 -0.03,-0.1 -0.03,-0.1 -0.03,-0.1 -0.03,-0.08 -0.03,-0.09 -0.03,-0.08 -0.03,-0.07 -0.04,-0.07 -0.04,-0.07 -0.04,-0.06 -0.05,-0.06 -0.05,-0.05 -0.06,-0.05 -0.06,-0.05 -0.07,-0.04 -0.08,-0.04 -0.09,-0.04 -0.09,-0.03 -0.1,-0.03 -0.11,-0.03 -0.06,-0.01 -0.06,-0.01 -0.07,-0.01 -0.06,-0.01 -0.07,-0.01 -0.07,-0.01 -0.08,-0.01 h -0.07 l -0.08,-0.01 -0.09,-0.01 h -0.08 l -0.09,-0.01 h -0.1 l -0.09,-0.01 h -0.1 -0.1 l -0.11,-0.01 h -0.11 -0.11 -0.12 -0.12 -0.12 c -0.58,0 -1.04,0 -1.04,-0.74 0,-0.51 0.41,-0.51 1.04,-0.51 h 13.48 c 5.86,0 10.36,4 10.36,7.45 0,2.49 -2.26,4.61 -5.97,4.99 4.22,0.76 7.75,3.42 7.75,6.4 0,2.66 -2.69,4.96 -7.22,4.96 l -0.56,-1.25 c 3.56,0 4.36,-2.35 4.36,-3.66 0,-2.83 -3.17,-6.03 -7.84,-6.03 h -5.71 l -0.25,-0.99 h 7.39 c 3.27,0 4.54,-2.15 4.54,-4.17 0,-3.45 -3.54,-6.45 -7.74,-6.45 h -5.63 c -1.07,0 -1.1,0.05 -1.1,0.36 0,0.03 0,0.2 0.14,0.72 l 2.4,9.54 0.25,0.99 2.13,8.5 c 0.26,1.08 0.31,1.19 1.76,1.19 h 5.3 l 0.56,1.25 H 619.1 c -0.65,0 -1.1,0 -1.1,-0.77 0,-0.48 0.42,-0.48 1.1,-0.48 0.04,0 0.71,0 1.33,-0.08 0.74,-0.06 0.8,-0.14 0.8,-0.49 0,-0.06 0,-0.23 -0.14,-0.76 z"
           id="path4984" /><path
           style="fill:#000000;stroke-width:0"
           inkscape:connector-curvature="0"
           d="m 627.43,400.18 h -1.18 c -0.1,-0.76 -0.46,-2.82 -0.91,-3.17 -0.27,-0.2 -2.95,-0.2 -3.44,-0.2 h -6.42 c 3.66,3.23 4.87,4.2 6.97,5.84 2.58,2.06 4.98,4.22 4.98,7.53 0,4.22 -3.68,6.8 -8.15,6.8 -4.31,0 -7.25,-3.03 -7.25,-6.23 0,-1.79 1.5,-1.96 1.86,-1.96 0.83,0 1.84,0.6 1.84,1.85 0,0.62 -0.25,1.84 -2.06,1.84 1.08,2.47 3.45,3.23 5.09,3.23 3.49,0 5.3,-2.7 5.3,-5.53 0,-3.03 -2.16,-5.43 -3.28,-6.68 l -8.39,-8.3 c -0.36,-0.31 -0.36,-0.39 -0.36,-1.36 h 14.36 z"
           id="path4986" /><path
           style="fill:#000000;stroke-width:0"
           inkscape:connector-curvature="0"
           d="m 674.45,420.04 -9.95,9.92 c -0.61,0.6 -0.7,0.71 -1.11,0.71 -0.48,0 -0.98,-0.46 -0.98,-1 0,-0.36 0.09,-0.46 0.64,-1 l 9.97,-10.02 -9.97,-10.01 c -0.55,-0.55 -0.64,-0.64 -0.64,-1 0,-0.55 0.5,-0.99 0.98,-0.99 0.41,0 0.5,0.1 1.11,0.69 l 9.91,9.92 10.31,-10.31 c 0.11,-0.05 0.45,-0.3 0.75,-0.3 0.59,0 1,0.44 1,0.99 0,0.11 0,0.31 -0.16,0.56 -0.04,0.09 -7.97,7.92 -10.45,10.45 l 9.11,9.13 c 0.25,0.29 1,0.93 1.25,1.23 0.05,0.11 0.25,0.3 0.25,0.66 0,0.54 -0.41,1 -1,1 -0.39,0 -0.59,-0.21 -1.14,-0.75 z"
           id="path4988" /><path
           style="fill:#000000;stroke-width:0"
           inkscape:connector-curvature="0"
           d="m 717.9,422.93 h 0.2 0.22 0.23 l 0.24,-0.01 0.26,-0.01 0.26,-0.02 0.28,-0.03 0.28,-0.03 0.29,-0.04 0.29,-0.05 0.29,-0.06 0.3,-0.07 0.3,-0.08 0.3,-0.1 0.3,-0.11 0.29,-0.13 0.29,-0.14 0.28,-0.16 0.27,-0.18 0.27,-0.2 0.25,-0.22 0.24,-0.24 0.24,-0.26 0.1,-0.14 0.11,-0.15 0.1,-0.15 0.1,-0.16 0.09,-0.16 0.09,-0.17 0.09,-0.18 0.08,-0.18 0.07,-0.2 0.07,-0.19 0.07,-0.21 0.06,-0.21 0.05,-0.22 0.05,-0.23 0.04,-0.23 0.03,-0.24 0.03,-0.25 0.02,-0.26 c 0.05,-0.59 0.1,-1.25 0.9,-1.25 0.85,0 0.85,0.7 0.85,1.6 l -1.75,4.39 c -0.75,0.93 -2.04,1.68 -2.64,1.93 0.96,0.46 1.94,1.25 2.64,2.1 V 422 l 1.75,-4.39 v 13.5 c 0,0.79 0,1.59 -0.85,1.59 -0.65,0 -0.85,-0.5 -0.9,-1.05 -0.29,-5.78 -3.78,-6.76 -7.42,-6.92 v 10.52 c 0,3.34 0.94,3.34 2.14,3.34 h 2.35 c 6.37,0 9.61,-3.44 9.9,-6.88 0.06,-0.4 0.11,-1.15 0.91,-1.15 0.84,0 0.84,0.8 0.84,1.64 v 6.48 c 0,1.55 -0.09,1.64 -1.64,1.64 l -0.11,-1.73 v -2.34 c -0.69,0.75 -1.54,1.64 -2.69,2.34 h 2.69 l 0.11,1.73 h -25.01 c -0.89,0 -1.69,0 -1.69,-0.89 0,-0.84 0.94,-0.84 1.34,-0.84 2.83,0 3.03,-0.41 3.03,-2.84 v -24.97 l 1.75,-0.1 v 25.16 c 0,0.59 0,1.84 -0.4,2.75 h 5.28 c -0.55,-1.16 -0.55,-2.8 -0.55,-3.25 v -24.5 c 0,-0.75 0,-1.95 0.5,-2.89 h -5.23 c 0.4,0.89 0.4,2.14 0.4,2.73 l -1.75,0.1 c 0,-2.35 -0.14,-2.83 -2.78,-2.83 -0.75,0 -1.59,0 -1.59,-0.86 0,-0.89 0.8,-0.89 1.69,-0.89 h 14.4 c 0.89,0 1.64,0 1.64,0.89 0,0.86 -0.84,0.86 -1.5,0.86 -3.83,0 -4.03,0.34 -4.03,2.98 z"
           id="path4990" /><path
           style="fill:#000000;stroke-width:0"
           inkscape:connector-curvature="0"
           d="m 764.85,448.25 v 0.01 0.02 0.02 0.01 0.02 l -0.01,0.02 v 0.02 l -0.01,0.02 v 0.02 l -0.01,0.02 -0.01,0.02 -0.01,0.01 -0.01,0.02 -0.01,0.02 -0.01,0.02 -0.01,0.02 -0.02,0.01 -0.01,0.02 -0.02,0.02 -0.01,0.01 -0.02,0.02 -0.02,0.01 -0.02,0.01 -0.02,0.01 -0.02,0.01 -0.03,0.01 -0.02,0.01 -0.03,0.01 h -0.01 -0.02 -0.01 l -0.02,0.01 h -0.01 -0.02 -0.01 -0.02 c -0.25,0 -0.31,-0.08 -0.62,-0.42 l -2.55,-2.69 c -0.31,0.42 -2.26,3.11 -6.55,3.11 -8.46,0 -16.76,-7.5 -16.76,-15.38 0,-5.67 4.47,-9.82 10.7,-9.82 1.88,0 5.22,0.39 8.81,3.42 2.75,2.33 3.52,5.36 3.52,5.64 0,0.45 -0.42,0.45 -0.6,0.45 -0.45,0 -0.51,-0.17 -0.62,-0.55 -1.42,-4.78 -6.31,-7.7 -10.51,-7.7 -3.71,0 -7.82,1.99 -7.82,7.49 0,1.01 0.25,6.51 4.25,10.9 2.41,2.69 6.07,4.28 9.38,4.28 4.04,0 6.4,-2.92 6.4,-6.82 0,-0.97 -0.09,-1.22 -0.09,-1.43 0,-0.45 0.45,-0.45 0.63,-0.45 0.56,0 0.56,0.11 0.73,0.77 z"
           id="path4992" /><path
           style="fill:#000000;stroke-width:0"
           inkscape:connector-curvature="0"
           d="m 753.07,400.18 h -1.18 c -0.1,-0.76 -0.46,-2.82 -0.91,-3.17 -0.26,-0.2 -2.95,-0.2 -3.44,-0.2 h -6.42 c 3.66,3.23 4.88,4.2 6.97,5.84 2.58,2.06 4.98,4.22 4.98,7.53 0,4.22 -3.68,6.8 -8.15,6.8 -4.32,0 -7.25,-3.03 -7.25,-6.23 0,-1.79 1.5,-1.96 1.86,-1.96 0.82,0 1.84,0.6 1.84,1.85 0,0.62 -0.25,1.84 -2.06,1.84 1.08,2.47 3.45,3.23 5.09,3.23 3.49,0 5.3,-2.7 5.3,-5.53 0,-3.03 -2.16,-5.43 -3.28,-6.68 l -8.39,-8.3 c -0.36,-0.31 -0.36,-0.39 -0.36,-1.36 h 14.36 z"
           id="path4994" /></g>    </g>
    <g
       id="g4572"
       transform="matrix(0.62439537,0,0,0.62439537,-3.0874158,38.495823)"
       style="stroke-width:1.60154939">
      <g
         word-spacing="normal"
         letter-spacing="normal"
         font-size-adjust="none"
         font-stretch="normal"
         font-weight="normal"
         font-variant="normal"
         font-style="normal"
         stroke-miterlimit="10.433"
         xml:space="preserve"
         transform="matrix(0.3,0,0,-0.3,-52.5,222.75)"
         id="g4570"
         style="font-style:normal;font-variant:normal;font-weight:normal;font-stretch:normal;letter-spacing:normal;word-spacing:normal;text-anchor:start;fill:none;fill-opacity:1;fill-rule:evenodd;stroke:#000000;stroke-width:2.21585536;stroke-linecap:butt;stroke-linejoin:miter;stroke-miterlimit:10.43299961;stroke-dasharray:none;stroke-dashoffset:0;stroke-opacity:1"><path
           id="path4558"
           d="m 486.8,434.54 0.23,0.36 0.23,0.33 0.22,0.31 0.22,0.29 0.22,0.28 0.22,0.25 0.22,0.24 0.22,0.22 0.21,0.2 0.21,0.19 0.21,0.17 0.2,0.16 0.21,0.14 0.2,0.13 0.21,0.12 0.19,0.11 0.2,0.09 0.2,0.09 0.19,0.07 0.2,0.07 0.19,0.06 0.19,0.05 0.18,0.04 0.19,0.03 0.18,0.03 0.19,0.03 0.36,0.04 0.35,0.02 0.35,0.02 c 0.6,0.05 0.64,0.89 0.64,0.96 0,0.39 -0.25,0.59 -0.64,0.59 -1.3,0 -2.75,-0.16 -4.09,-0.16 -1.64,0 -3.35,0.16 -4.94,0.16 -0.3,0 -0.94,0 -0.94,-0.95 0,-0.55 0.46,-0.6 0.8,-0.6 1.34,-0.09 2.3,-0.59 2.3,-1.64 0,-0.75 -0.75,-1.84 -0.75,-1.89 l -15.3,-24.31 -3.39,26.34 c 0,0.85 1.14,1.5 3.44,1.5 0.7,0 1.25,0 1.25,1 0,0.44 -0.41,0.55 -0.71,0.55 -1.98,0 -4.14,-0.16 -6.17,-0.16 -0.9,0 -1.84,0.05 -2.75,0.05 -0.89,0 -1.84,0.11 -2.69,0.11 -0.34,0 -0.93,0 -0.93,-0.95 0,-0.6 0.43,-0.6 1.23,-0.6 2.8,0 2.84,-0.45 3,-1.68 l 3.92,-30.75 c 0.16,-1 0.36,-1.14 1,-1.14 0.8,0 1,0.25 1.41,0.89 z"
           inkscape:connector-curvature="0"
           style="fill:#000000;stroke-width:0" /><path
           id="path4560"
           d="m 513.93,422.81 v 0.02 0.01 0.02 0.02 0.02 l -0.01,0.01 v 0.02 l -0.01,0.02 v 0.02 l -0.01,0.02 -0.01,0.02 -0.01,0.02 -0.01,0.02 -0.01,0.01 -0.01,0.02 -0.01,0.02 -0.02,0.02 -0.01,0.01 -0.02,0.02 -0.02,0.01 -0.01,0.02 -0.02,0.01 -0.02,0.01 -0.02,0.02 -0.03,0.01 h -0.02 l -0.03,0.01 -0.02,0.01 h -0.02 -0.01 l -0.01,0.01 h -0.02 -0.01 -0.02 -0.01 -0.02 c -0.25,0 -0.31,-0.08 -0.63,-0.42 l -2.54,-2.69 c -0.31,0.42 -2.27,3.11 -6.55,3.11 -8.47,0 -16.76,-7.5 -16.76,-15.37 0,-5.68 4.46,-9.83 10.7,-9.83 1.87,0 5.22,0.39 8.81,3.42 2.75,2.33 3.52,5.36 3.52,5.64 0,0.45 -0.42,0.45 -0.6,0.45 -0.45,0 -0.51,-0.17 -0.62,-0.54 -1.42,-4.78 -6.31,-7.71 -10.52,-7.71 -3.7,0 -7.81,1.99 -7.81,7.49 0,1.01 0.25,6.51 4.25,10.9 2.41,2.69 6.06,4.29 9.38,4.29 4.04,0 6.4,-2.93 6.4,-6.83 0,-0.97 -0.09,-1.22 -0.09,-1.42 0,-0.46 0.45,-0.46 0.62,-0.46 0.57,0 0.57,0.11 0.74,0.77 z"
           inkscape:connector-curvature="0"
           style="fill:#000000;stroke-width:0" /><path
           id="path4562"
           d="m 534.65,394.25 -0.01,0.02 v 0.03 0.01 0.02 0.01 l -0.01,0.02 v 0.01 l -0.01,0.02 -0.01,0.02 -0.01,0.02 -0.01,0.02 -0.02,0.03 -0.01,0.02 -0.02,0.03 -0.02,0.03 -0.03,0.03 -0.02,0.03 -0.03,0.04 -0.02,0.02 -0.01,0.02 -0.02,0.02 -0.02,0.02 -0.02,0.02 -0.02,0.03 -0.02,0.02 -0.02,0.02 -0.02,0.03 -0.03,0.02 -0.02,0.03 -0.03,0.03 -0.02,0.03 -0.03,0.03 -0.03,0.03 -0.03,0.03 -0.03,0.03 -0.03,0.03 -0.04,0.04 -0.03,0.03 -0.04,0.04 -0.03,0.03 -0.04,0.04 -0.04,0.04 c -6.22,6.28 -7.81,15.69 -7.81,23.31 0,8.67 1.89,17.35 8.01,23.56 0.65,0.61 0.65,0.71 0.65,0.86 0,0.35 -0.19,0.49 -0.49,0.49 -0.5,0 -4.98,-3.38 -7.92,-9.7 -2.55,-5.49 -3.14,-11.02 -3.14,-15.21 0,-3.89 0.55,-9.9 3.28,-15.54 2.98,-6.13 7.28,-9.36 7.78,-9.36 0.3,0 0.49,0.14 0.49,0.5 z"
           inkscape:connector-curvature="0"
           style="fill:#000000;stroke-width:0" /><path
           id="path4564"
           d="m 564.43,436.59 0.04,0.15 0.03,0.14 0.04,0.14 0.03,0.13 0.04,0.12 0.03,0.12 0.04,0.11 0.04,0.11 0.04,0.1 0.05,0.09 0.05,0.09 0.05,0.08 0.06,0.08 0.06,0.07 0.07,0.07 0.07,0.06 0.09,0.06 0.08,0.05 0.1,0.05 0.11,0.04 0.11,0.04 0.12,0.04 0.14,0.03 0.07,0.01 0.07,0.02 0.08,0.01 0.08,0.01 0.08,0.01 0.09,0.01 0.08,0.01 0.09,0.01 0.1,0.01 h 0.1 l 0.1,0.01 h 0.1 l 0.11,0.01 h 0.11 0.12 0.12 0.12 0.12 c 0.8,0 1.35,0 1.35,0.96 0,0.43 -0.3,0.59 -0.69,0.59 -1.25,0 -4.28,-0.16 -5.53,-0.16 -1.64,0 -5.69,0.16 -7.33,0.16 -0.45,0 -1.05,0 -1.05,-1 0,-0.55 0.41,-0.55 1.71,-0.55 1.14,0 1.64,0 2.87,-0.09 1.21,-0.16 1.55,-0.31 1.55,-1 0,-0.3 -0.09,-0.66 -0.19,-1.05 l -5.73,-22.87 c -1.21,-4.83 -4.58,-7.47 -7.17,-7.47 -1.3,0 -3.94,0.5 -4.74,3.09 0.14,-0.04 0.5,-0.04 0.59,-0.04 1.94,0 3.24,1.68 3.24,3.18 0,1.6 -1.34,2.08 -2.19,2.08 -0.89,0 -3.34,-0.59 -3.34,-3.98 0,-3.08 2.64,-5.42 6.58,-5.42 4.59,0 9.76,3.28 11.01,8.21 z"
           inkscape:connector-curvature="0"
           style="fill:#000000;stroke-width:0" /><path
           id="path4566"
           d="m 589.81,422.81 v 0.02 0.01 0.02 0.02 0.02 l -0.01,0.01 v 0.02 l -0.01,0.02 v 0.02 l -0.01,0.02 -0.01,0.02 -0.01,0.02 -0.01,0.02 -0.01,0.01 -0.01,0.02 -0.01,0.02 -0.01,0.02 -0.02,0.01 -0.01,0.02 -0.02,0.01 -0.02,0.02 -0.02,0.01 -0.02,0.01 -0.02,0.02 -0.02,0.01 h -0.03 l -0.02,0.01 -0.01,0.01 h -0.02 -0.01 -0.02 l -0.01,0.01 h -0.02 -0.01 -0.02 -0.01 -0.02 c -0.2,0 -0.23,-0.05 -0.69,-0.5 l -1.72,-1.98 c -1.31,1.86 -3.51,2.48 -5.64,2.48 -4.9,0 -9.26,-3.98 -9.26,-7.98 0,-0.52 0.11,-1.92 1.15,-3.21 1.18,-1.39 2.47,-1.7 4.85,-2.26 0.68,-0.17 2.43,-0.56 2.95,-0.7 1.11,-0.29 3.25,-1.05 3.25,-3.66 0,-2.81 -2.97,-6.13 -6.94,-6.13 -3.06,0 -6.76,1.08 -6.76,4.94 0,0.36 0.08,1.13 0.2,1.75 0.05,0.14 0.05,0.17 0.05,0.2 0,0.46 -0.42,0.46 -0.57,0.46 -0.48,0 -0.51,-0.06 -0.65,-0.69 l -1.78,-6.97 c -0.03,-0.14 -0.11,-0.36 -0.11,-0.53 0,-0.2 0.14,-0.42 0.48,-0.42 0.22,0 0.25,0.05 0.71,0.5 0.39,0.4 1.29,1.53 1.67,1.95 1.84,-2.03 4.56,-2.45 6.65,-2.45 5.27,0 9.52,4.53 9.52,8.64 0,1.55 -0.63,2.94 -1.39,3.73 -1.22,1.25 -1.75,1.39 -6.25,2.44 -0.72,0.17 -1.88,0.45 -2.19,0.56 -0.87,0.32 -2.33,1.19 -2.33,3.18 0,2.75 3.1,5.53 6.72,5.53 3.77,0 5.58,-2.13 5.58,-5.44 0,-0.45 -0.14,-1.25 -0.14,-1.56 0,-0.49 0.42,-0.49 0.59,-0.49 0.52,0 0.55,0.17 0.69,0.77 z"
           inkscape:connector-curvature="0"
           style="fill:#000000;stroke-width:0" /><path
           id="path4568"
           d="m 608.39,418.65 v 0.37 l -0.01,0.39 v 0.39 l -0.02,0.41 -0.04,0.84 -0.06,0.88 -0.08,0.92 -0.11,0.95 -0.13,0.97 -0.16,1.01 -0.2,1.02 -0.23,1.03 -0.27,1.05 -0.3,1.06 -0.35,1.07 -0.39,1.07 -0.22,0.53 -0.22,0.53 -0.24,0.53 -0.25,0.53 c -2.98,6.12 -7.27,9.36 -7.77,9.36 -0.29,0 -0.5,-0.19 -0.5,-0.49 0,-0.15 0,-0.25 0.94,-1.15 4.89,-4.92 7.74,-12.85 7.74,-23.27 0,-8.51 -1.85,-17.28 -8.04,-23.56 -0.64,-0.59 -0.64,-0.7 -0.64,-0.84 0,-0.3 0.21,-0.5 0.5,-0.5 0.5,0 4.97,3.39 7.93,9.71 2.53,5.47 3.12,11 3.12,15.19 z"
           inkscape:connector-curvature="0"
           style="fill:#000000;stroke-width:0" /></g>    </g>
  </g>
</svg>
